<svg width="58" height="48" viewBox="0 0 58 48" fill="none" xmlns="http://www.w3.org/2000/svg">
<g filter="url(#filter0_d_13_138)">
<path d="M53.1379 3.47827H4.86207C4.38596 3.47827 4 3.86759 4 4.34784V39.1304C4 39.6107 4.38596 40 4.86207 40H53.1379C53.614 40 54 39.6107 54 39.1304V4.34784C54 3.86759 53.614 3.47827 53.1379 3.47827Z" fill="url(#paint0_linear_13_138)"/>
<path d="M49.6896 0.869566V33.0435C49.6896 33.2741 49.5988 33.4953 49.4371 33.6584C49.2755 33.8214 49.0562 33.913 48.8276 33.913H38.2414C35.6981 33.9111 33.1893 34.5065 30.9138 35.6522L29.3879 36.4174C28.7845 36.7217 28.4138 36.2348 27.0862 35.6522C24.8106 34.5065 22.3019 33.9111 19.7586 33.913H9.1724C8.94377 33.913 8.7245 33.8214 8.56283 33.6584C8.40116 33.4953 8.31033 33.2741 8.31033 33.0435V0.869566C8.31033 0.638943 8.40116 0.417765 8.56283 0.25469C8.7245 0.0916152 8.94377 4.1293e-07 9.1724 4.1293e-07H20.3793C22.9777 0.090758 25.5265 0.743138 27.8534 1.91304L29 2.48696L30.1465 1.91304C32.6624 0.65415 35.4329 -0.000600265 38.2414 4.1293e-07H48.8276C49.0562 4.1293e-07 49.2755 0.0916152 49.4371 0.25469C49.5988 0.417765 49.6896 0.638943 49.6896 0.869566Z" fill="url(#paint1_linear_13_138)"/>
<path d="M20.3793 0V20C20.3785 20.1566 20.3358 20.3101 20.2557 20.4442C20.1756 20.5783 20.0611 20.6882 19.9242 20.7621C19.7873 20.836 19.6332 20.8713 19.4781 20.8642C19.3231 20.8571 19.1728 20.8079 19.0431 20.7217L16.931 19.3043L14.819 20.7217C14.6893 20.8079 14.539 20.8571 14.3839 20.8642C14.2288 20.8713 14.0747 20.836 13.9379 20.7621C13.801 20.6882 13.6865 20.5783 13.6064 20.4442C13.5263 20.3101 13.4836 20.1566 13.4828 20V0H20.3793Z" fill="url(#paint2_linear_13_138)"/>
<path d="M48.8276 0H38.2414C35.0003 0.0315813 31.8204 0.893325 29 2.50435V36.5217C29.8621 36.5217 32.7069 33.913 38.2414 33.913H48.8276C49.0562 33.913 49.2755 33.8214 49.4372 33.6584C49.5988 33.4953 49.6897 33.2741 49.6897 33.0435V0.869565C49.6897 0.638942 49.5988 0.417765 49.4372 0.25469C49.2755 0.0916148 49.0562 0 48.8276 0Z" fill="url(#paint3_linear_13_138)"/>
<path d="M34.1724 26.0869H44.5173V27.826H34.1724V26.0869Z" fill="url(#paint4_linear_13_138)"/>
<path d="M34.1724 22.6086H41.181V24.3478H34.1724V22.6086Z" fill="url(#paint5_linear_13_138)"/>
<path d="M34.1724 19.1305H44.5173V20.8696H34.1724V19.1305Z" fill="url(#paint6_linear_13_138)"/>
<path d="M34.1724 15.6522H41.181V17.3914H34.1724V15.6522Z" fill="url(#paint7_linear_13_138)"/>
<path d="M34.1724 12.174H44.5173V13.9131H34.1724V12.174Z" fill="url(#paint8_linear_13_138)"/>
<path d="M53.1379 3.47826H49.6897V0.869565C49.6897 0.638942 49.5988 0.417765 49.4372 0.25469C49.2755 0.0916148 49.0562 0 48.8276 0H38.2414C35.0003 0.0315813 31.8204 0.893325 29 2.50435C26.1779 0.897562 22.9991 0.0361166 19.7586 0H9.17241C8.94378 0 8.72451 0.0916148 8.56284 0.25469C8.40117 0.417765 8.31034 0.638942 8.31034 0.869565V3.47826H4.86207C4.63343 3.47826 4.41416 3.56988 4.25249 3.73295C4.09082 3.89603 4 4.1172 4 4.34783V39.1304C4 39.3611 4.09082 39.5822 4.25249 39.7453C4.41416 39.9084 4.63343 40 4.86207 40H53.1379C53.3666 40 53.5858 39.9084 53.7475 39.7453C53.9092 39.5822 54 39.3611 54 39.1304V4.34783C54 4.1172 53.9092 3.89603 53.7475 3.73295C53.5858 3.56988 53.3666 3.47826 53.1379 3.47826ZM38.2414 1.73913H47.9655V32.1739H38.2414C35.3286 32.2118 32.4627 32.9196 29.8621 34.2435V4.01739C32.4188 2.55438 35.3021 1.77044 38.2414 1.73913ZM18.6552 1.73913V18.3739L17.4052 17.5043C17.2644 17.4108 17.0996 17.361 16.931 17.361C16.7625 17.361 16.5977 17.4108 16.4569 17.5043L15.2069 18.3739V1.73913H18.6552ZM10.0345 1.73913H13.4828V20C13.4836 20.1566 13.5263 20.3101 13.6064 20.4442C13.6865 20.5783 13.801 20.6882 13.9379 20.7621C14.0747 20.836 14.2288 20.8713 14.3839 20.8642C14.539 20.8571 14.6893 20.8079 14.819 20.7217L16.931 19.3043L19.0431 20.7217C19.1728 20.8079 19.3231 20.8571 19.4782 20.8642C19.6332 20.8713 19.7873 20.836 19.9242 20.7621C20.0611 20.6882 20.1756 20.5783 20.2557 20.4442C20.3358 20.3101 20.3785 20.1566 20.3793 20V1.73913C23.1053 1.86972 25.7628 2.64412 28.1379 4V34.2435C25.548 32.8906 22.6752 32.1811 19.7586 32.1739H10.0345V1.73913ZM52.2759 38.2609H5.72414V5.21739H8.31034V33.0435C8.31034 33.2741 8.40117 33.4953 8.56284 33.6584C8.72451 33.8214 8.94378 33.913 9.17241 33.913H19.7586C22.3019 33.9111 24.8107 34.5065 27.0862 35.6522C28.4655 36.2609 28.8103 36.7217 29.3879 36.4174L30.9138 35.6522C33.1893 34.5065 35.6981 33.9111 38.2414 33.913H48.8276C49.0562 33.913 49.2755 33.8214 49.4372 33.6584C49.5988 33.4953 49.6897 33.2741 49.6897 33.0435V5.21739H52.2759V38.2609Z" fill="url(#paint9_linear_13_138)"/>
</g>
<defs>
<filter id="filter0_d_13_138" x="0" y="0" width="58" height="48" filterUnits="userSpaceOnUse" color-interpolation-filters="sRGB">
<feFlood flood-opacity="0" result="BackgroundImageFix"/>
<feColorMatrix in="SourceAlpha" type="matrix" values="0 0 0 0 0 0 0 0 0 0 0 0 0 0 0 0 0 0 127 0" result="hardAlpha"/>
<feOffset dy="4"/>
<feGaussianBlur stdDeviation="2"/>
<feComposite in2="hardAlpha" operator="out"/>
<feColorMatrix type="matrix" values="0 0 0 0 0 0 0 0 0 0 0 0 0 0 0 0 0 0 0.25 0"/>
<feBlend mode="normal" in2="BackgroundImageFix" result="effect1_dropShadow_13_138"/>
<feBlend mode="normal" in="SourceGraphic" in2="effect1_dropShadow_13_138" result="shape"/>
</filter>
<linearGradient id="paint0_linear_13_138" x1="29" y1="40" x2="29" y2="3.47827" gradientUnits="userSpaceOnUse">
<stop stop-color="#002237"/>
<stop offset="1" stop-color="#003352"/>
</linearGradient>
<linearGradient id="paint1_linear_13_138" x1="29" y1="4.1293e-07" x2="29" y2="36.5217" gradientUnits="userSpaceOnUse">
<stop stop-color="#E4991F"/>
<stop offset="1" stop-color="#D4651C"/>
</linearGradient>
<linearGradient id="paint2_linear_13_138" x1="16.931" y1="0" x2="16.931" y2="20.8696" gradientUnits="userSpaceOnUse">
<stop stop-color="#137DBF"/>
<stop offset="1" stop-color="#02476C"/>
</linearGradient>
<linearGradient id="paint3_linear_13_138" x1="39.3448" y1="0" x2="39.3448" y2="36.5217" gradientUnits="userSpaceOnUse">
<stop stop-color="#FFC033"/>
<stop offset="1" stop-color="#EF8E2E"/>
</linearGradient>
<linearGradient id="paint4_linear_13_138" x1="39.3448" y1="26.0869" x2="39.3448" y2="27.826" gradientUnits="userSpaceOnUse">
<stop stop-color="#000406"/>
<stop offset="1" stop-color="#001521"/>
</linearGradient>
<linearGradient id="paint5_linear_13_138" x1="37.6724" y1="22.6086" x2="37.6724" y2="24.3478" gradientUnits="userSpaceOnUse">
<stop stop-color="#000406"/>
<stop offset="1" stop-color="#001521"/>
</linearGradient>
<linearGradient id="paint6_linear_13_138" x1="1.41381" y1="19.1305" x2="2.28788" y2="20.8636" gradientUnits="userSpaceOnUse">
<stop stop-color="#000406"/>
<stop offset="1" stop-color="#001521"/>
</linearGradient>
<linearGradient id="paint7_linear_13_138" x1="37.6724" y1="15.6522" x2="37.6724" y2="17.3914" gradientUnits="userSpaceOnUse">
<stop stop-color="#000406"/>
<stop offset="1" stop-color="#001521"/>
</linearGradient>
<linearGradient id="paint8_linear_13_138" x1="1.41381" y1="12.174" x2="2.28788" y2="13.907" gradientUnits="userSpaceOnUse">
<stop stop-color="#000406"/>
<stop offset="1" stop-color="#001521"/>
</linearGradient>
<linearGradient id="paint9_linear_13_138" x1="29" y1="0" x2="29" y2="40" gradientUnits="userSpaceOnUse">
<stop stop-color="#000406"/>
<stop offset="1" stop-color="#001521"/>
</linearGradient>
</defs>
</svg>
