<svg width="50" height="40" viewBox="0 0 50 40" fill="none" xmlns="http://www.w3.org/2000/svg">
<path d="M38.75 12.3078L40.25 11.6924C40.5 11.5385 40.75 11.6924 40.875 11.8462C41.125 12.1539 41.125 12.4616 40.875 12.7693L40.375 13.8462L38.75 12.3078Z" fill="#CC291F"/>
<path opacity="0.39" d="M38.75 12.3078L40.25 11.6924C40.5 11.5385 40.75 11.6924 40.875 11.8462C41.125 12.1539 41.125 12.4616 40.875 12.7693L40.375 13.8462" fill="black"/>
<path opacity="0.3" d="M32.5 39.9999L50 29.2307L17.5 9.23071L0 19.9999L32.5 39.9999Z" fill="#262626"/>
<path d="M33.125 33.5383L47.5 25.0768L16.25 5.69214L1.875 14.1537L33.125 33.5383Z" fill="#2D3134"/>
<path d="M27.625 24.7692C26.625 24.1538 25.75 24.1538 25.125 24.4615L23.75 25.3846C23 25.8461 22.625 26.6154 22.625 28C22.625 30.4615 24.25 33.5384 26.25 34.7692C27.25 35.3846 28.125 35.3846 28.875 35.0769C28.875 35.0769 30.25 34.1538 30.375 34C31 33.5384 31.375 32.7692 31.375 31.5384C31.25 29.0769 29.625 26.1538 27.625 24.7692Z" fill="#2D3134"/>
<path opacity="0.39" d="M28.75 35.0769C29 34.923 30.125 34.1538 30.25 34.1538C30.875 33.6923 31.25 32.923 31.25 31.6923C31.25 30.6154 31 29.5384 30.5 28.6154L29.125 29.5384C29.625 30.6154 29.875 31.6923 29.875 32.6154C29.875 33.8461 29.5 34.6154 28.75 35.0769Z" fill="black"/>
<path d="M26.125 26.9231C24.625 26 23.375 26.7693 23.375 28.6154C23.375 30.4616 24.625 32.7693 26.125 33.6924C27.625 34.6154 28.875 33.8462 28.875 32C29 30.1539 27.75 27.8462 26.125 26.9231ZM28 29.2308C28.25 29.6924 28.375 30.1539 28.125 30.3077C28 30.4616 27.125 30.3077 26.75 30.1539C26.75 30 26.625 30 26.625 29.8462C26.75 29.3847 27 28.6154 27.25 28.4616C27.375 28.3077 27.75 28.6154 28 29.2308ZM26.125 27.2308C26.5 27.5385 26.875 27.8462 26.875 28.1539C26.875 28.4616 26.5 29.2308 26.25 29.5385C26.25 29.5385 26.125 29.5385 26.125 29.3847H26C25.75 28.7693 25.375 27.6924 25.375 27.3847C25.5 26.9231 25.75 26.9231 26.125 27.2308ZM24.375 26.9231C24.625 26.7693 25 26.7693 25.25 27.2308C25.375 27.5385 25.75 28.7693 25.875 29.2308C25.75 29.2308 25.75 29.2308 25.75 29.3847C25.375 28.9231 24.5 28.1539 24.375 27.8462C24 27.3847 24.125 27.077 24.375 26.9231ZM23.625 28.7693C23.625 28.3077 23.75 28 24.125 28.1539C24.375 28.3077 25.125 29.2308 25.5 29.6924V30C25.125 30 24.375 30 24.125 29.8462C23.75 29.6924 23.625 29.2308 23.625 28.7693ZM24.375 31.3847C24.125 30.9231 24 30.4616 24.25 30.3077C24.375 30.1539 25.25 30.3077 25.625 30.4616C25.625 30.6154 25.75 30.6154 25.75 30.7693C25.625 31.2308 25.375 32 25.125 32.1539C25 32.3077 24.625 31.8462 24.375 31.3847ZM26.125 33.3847C25.75 33.077 25.375 32.7693 25.375 32.4616C25.375 32.1539 25.75 31.3847 26 31.077C26 31.077 26.125 31.077 26.125 31.2308H26.25C26.5 31.8462 26.875 32.9231 26.875 33.2308C26.875 33.6924 26.625 33.6924 26.125 33.3847ZM28 33.5385C27.75 33.6924 27.375 33.6924 27.125 33.2308C27 32.9231 26.625 31.6924 26.5 31.2308C26.625 31.2308 26.625 31.2308 26.625 31.077C27 31.5385 27.875 32.3077 28 32.6154C28.375 33.077 28.25 33.3847 28 33.5385ZM28.25 32.4616C28 32.3077 27.25 31.3847 26.875 30.9231V30.6154C27.25 30.6154 28 30.6154 28.25 30.7693C28.625 30.9231 28.75 31.3847 28.75 31.8462C28.75 32.3077 28.625 32.6154 28.25 32.4616Z" fill="#C4C6CC"/>
<path opacity="0.06" d="M26.375 33.5384C24.875 32.6154 23.625 30.3077 23.625 28.4615C23.625 27.5384 23.875 26.923 24.375 26.6154C23.75 26.923 23.375 27.5384 23.375 28.6154C23.375 30.4615 24.625 32.7692 26.125 33.6923C26.875 34.1538 27.625 34.1538 28.125 33.8461C27.625 34 27.125 34 26.375 33.5384Z" fill="black"/>
<path opacity="0.06" d="M29.875 32.6153C29.875 35.0769 28.25 36.1538 26.25 34.923C24.25 33.6923 22.625 30.6153 22.625 28.1538C22.625 25.6923 24.25 24.6153 26.25 25.8461C28.25 26.923 29.875 29.9999 29.875 32.6153Z" fill="black"/>
<path d="M8.875 13.3846C7.875 12.7692 7 12.7692 6.375 13.0769L4.875 13.9999C4.25 14.3076 3.75 15.2307 3.75 16.4615C3.75 18.923 5.375 21.9999 7.375 23.2307C8.375 23.8461 9.25 23.8461 10 23.5384C10 23.5384 11.375 22.6153 11.5 22.4615C12.125 21.9999 12.5 21.2307 12.5 19.9999C12.5 17.6923 10.875 14.6153 8.875 13.3846Z" fill="#2D3134"/>
<path opacity="0.39" d="M10 23.5384C10.25 23.3846 11.375 22.6154 11.5 22.6154C12.125 22.1538 12.5 21.3846 12.5 20.1538C12.5 19.0769 12.25 18 11.75 17.0769L10.375 18C10.875 19.0769 11.125 20.1538 11.125 21.0769C11.125 22.3077 10.75 23.2308 10 23.5384Z" fill="black"/>
<path d="M7.375 15.3845C5.875 14.4615 4.625 15.2307 4.625 17.0769C4.625 18.923 5.875 21.2307 7.375 22.1538C8.875 23.0769 10.125 22.3076 10.125 20.4615C10.25 18.6153 9 16.3076 7.375 15.3845ZM9.25 17.6922C9.5 18.1538 9.625 18.6153 9.375 18.7692C9.25 18.923 8.375 18.7692 8 18.6153C8 18.4615 7.875 18.4615 7.875 18.3076C8 17.8461 8.25 17.0769 8.5 16.923C8.625 16.7692 9 17.2307 9.25 17.6922ZM7.375 15.6922C7.75 15.9999 8.125 16.3076 8.125 16.6153C8.125 16.923 7.75 17.6922 7.5 17.9999C7.5 17.9999 7.375 17.9999 7.375 17.8461H7.25C7 17.2307 6.625 16.1538 6.625 15.8461C6.75 15.3845 7 15.3845 7.375 15.6922ZM5.625 15.5384C5.875 15.3845 6.25 15.3845 6.5 15.8461C6.625 16.1538 7 17.3845 7.125 17.8461C7 17.8461 7 17.8461 7 17.9999C6.625 17.5384 5.75 16.7692 5.625 16.4615C5.25 15.9999 5.375 15.6922 5.625 15.5384ZM4.875 17.2307C4.875 16.7692 5 16.4615 5.375 16.6153C5.625 16.7692 6.375 17.6922 6.75 18.1538V18.4615C6.375 18.4615 5.625 18.4615 5.375 18.3076C5 18.1538 4.875 17.6922 4.875 17.2307ZM5.625 19.8461C5.375 19.3845 5.25 18.923 5.5 18.7692C5.625 18.6153 6.5 18.7692 6.875 18.923C6.875 19.0769 7 19.0769 7 19.2307C6.875 19.6922 6.625 20.4615 6.375 20.6153C6.25 20.7692 5.875 20.3076 5.625 19.8461ZM7.375 21.8461C7 21.5384 6.625 21.2307 6.625 20.923C6.625 20.6153 7 19.8461 7.25 19.5384C7.25 19.5384 7.375 19.5384 7.375 19.6922H7.5C7.75 20.3076 8.125 21.3845 8.125 21.6922C8.125 22.1538 7.875 22.1538 7.375 21.8461ZM9.25 22.1538C9 22.3076 8.625 22.3076 8.375 21.8461C8.25 21.5384 7.875 20.3076 7.75 19.8461C7.875 19.8461 7.875 19.8461 7.875 19.6922C8.25 20.1538 9.125 20.923 9.25 21.2307C9.625 21.6922 9.5 21.9999 9.25 22.1538ZM9.5 20.923C9.25 20.7692 8.5 19.8461 8.125 19.3845V19.0769C8.5 19.0769 9.25 19.0769 9.5 19.2307C9.875 19.3845 10 19.8461 10 20.3076C10 20.7692 9.875 21.0769 9.5 20.923Z" fill="#C4C6CC"/>
<path opacity="0.06" d="M7.625 22C6.125 21.0769 4.875 18.7692 4.875 16.9231C4.875 16 5.125 15.3846 5.625 15.0769C5 15.3846 4.625 16 4.625 17.0769C4.625 18.9231 5.875 21.2308 7.375 22.1538C8.125 22.6154 8.875 22.6154 9.375 22.3077C8.875 22.6154 8.375 22.4615 7.625 22Z" fill="black"/>
<path opacity="0.06" d="M11.125 21.0768C11.125 23.5384 9.5 24.6153 7.5 23.3845C5.5 22.1538 3.75 19.0768 3.75 16.4614C3.75 13.8461 5.375 12.923 7.375 14.1538C9.5 15.5384 11.125 18.6153 11.125 21.0768Z" fill="black"/>
<path d="M41.6203 15.5456L34.9909 6.21823L24.9842 0L17.7294 0.777279L12.9762 0.310912L1.71875 7.30642V13.5247L3.09466 14.6128C3.72008 12.9028 5.47124 12.281 7.34749 13.5247C9.59899 14.9238 11.3501 18.0329 11.7254 20.8311L21.732 27.2048C21.9822 24.562 23.8585 23.6293 26.11 25.0284C28.3615 26.4275 30.2377 29.6921 30.4879 32.6457L35.4912 35.2885L48.75 27.2048V20.9865L41.6203 15.5456Z" fill="#CC291F"/>
<path d="M23.5 14.1539L35 6.9231L40.75 15.0769L29.25 22.1539L23.5 14.1539Z" fill="#3399CC"/>
<path d="M40.375 14.6155L28.875 21.6924L29.25 22.1539L40.75 15.077L40.375 14.6155Z" fill="#2D3134"/>
<path opacity="0.15" d="M26 12.6154L35 6.9231L40.75 15.0769L26 12.6154Z" fill="black"/>
<path d="M18.75 1.23083L22.5 0.769287L12.375 6.92313L8.5 7.38467L18.75 1.23083Z" fill="#3399CC"/>
<path opacity="0.39" d="M18.625 3.0769L12.375 6.92306L8.5 7.3846L18.625 3.0769Z" fill="white"/>
<path d="M48.75 21.5385V24.3077L46.875 25.3846V24.1538C46.875 23.6923 47 23.2308 47.25 22.7692C47.5 22.4615 47.75 22.1538 48 22L48.75 21.5385ZM35.625 29.6923L37 28.9231C37.25 28.7692 37.625 28.7692 37.875 29.0769C38 29.2308 38.125 29.5385 38.125 29.6923V30.7692L35.625 32.3077V29.6923Z" fill="white"/>
<path d="M35.625 29.6923L35 29.2307V31.9999L35.625 32.3076V29.6923Z" fill="#FFCC00"/>
<path opacity="0.39" d="M36.7083 29.9817C36.4469 30.3771 36.4085 30.8715 36.6227 31.0861C36.8368 31.3006 37.2224 31.154 37.4839 30.7586C37.7454 30.3632 37.7838 29.8688 37.5696 29.6542C37.3554 29.4397 36.9698 29.5863 36.7083 29.9817Z" fill="#2D3134"/>
<path opacity="0.39" d="M36.2484 29.9582C35.9869 30.3536 35.9486 30.8481 36.1627 31.0626C36.3769 31.2772 36.7625 31.1306 37.024 30.7352C37.2854 30.3398 37.3238 29.8454 37.1096 29.6308C36.8955 29.4163 36.5099 29.5629 36.2484 29.9582Z" fill="#2D3134"/>
<path opacity="0.39" d="M47.6846 23.0008C47.4231 23.3962 47.3847 23.8907 47.5989 24.1052C47.8131 24.3198 48.1987 24.1732 48.4601 23.7778C48.7216 23.3824 48.76 22.888 48.5458 22.6734C48.3316 22.4589 47.9461 22.6055 47.6846 23.0008Z" fill="#2D3134"/>
<path opacity="0.39" d="M47.0969 23.4319C46.8354 23.8273 46.7971 24.3217 47.0112 24.5363C47.2254 24.7508 47.611 24.6042 47.8725 24.2088C48.1339 23.8134 48.1723 23.319 47.9581 23.1044C47.744 22.8899 47.3584 23.0365 47.0969 23.4319Z" fill="#2D3134"/>
<path d="M39.375 28.154L45.625 24.3079V26.154L39.375 30.0002V28.154Z" fill="#2D3134"/>
<path d="M2.5 8.46162L1.875 8.15393V10.0001L2.5 10.4616V8.46162Z" fill="#FF9900"/>
<path d="M16.625 15.8462L27.875 22.7692L22.125 14.4616L16.625 11.0769V15.8462ZM15.625 10.6154L12.875 8.9231L7.25 10L15.625 15.2308V10.6154Z" fill="#3399CC"/>
<path opacity="0.15" d="M17.25 15.8462V11.5385L16.625 11.0769V15.8462L27.875 22.7692L27.375 22L17.25 15.8462ZM7.875 10L13 8.9231H12.875L7.25 10L15.625 15.2308V14.7692L7.875 10Z" fill="black"/>
<path opacity="0.06" d="M29.125 23.077L22.5 13.8462L12.125 7.69234L5.375 8.46157L1.875 7.38464V13.5385L3.25 14.6154C3.75 12.7693 5.5 12.1539 7.375 13.3846C9.625 14.7693 11.375 17.8462 11.75 20.6154L12 20.7693L21.75 27.077C22 24.4616 23.875 23.5385 26.125 24.9231C28.375 26.3077 30.25 29.5385 30.5 32.4616L35.5 35.077V28.9231L29.125 23.077Z" fill="black"/>
<path d="M1.625 11.9999L2.875 12.7691V15.0768L1.625 14.3076V11.9999Z" fill="#CC291F"/>
<path opacity="0.39" d="M1.625 11.9999L2.875 12.7691V15.0768L1.625 14.3076V11.9999Z" fill="black"/>
<path d="M2.875 12.7692V15.0769L3.125 14.6154V12.3077L1.875 11.5385L1.625 12L2.875 12.7692ZM35.375 35.3846L49.75 26.6154V25.0769L35.375 33.8461L34.125 33.0769V34.6154L35.375 35.3846Z" fill="#CC291F"/>
<path opacity="0.39" d="M35.375 35.3846L49.75 26.6154V25.0769L35.375 33.8461L34.125 33.0769V34.6154L35.375 35.3846Z" fill="black"/>
<path d="M35.375 33.077L49.125 24.6155L49.75 25.077L35.375 33.8462L34.125 33.077L34.75 32.7693L35.375 33.077Z" fill="#CC291F"/>
<path opacity="0.39" d="M35.625 29.6923L38.125 30.7692L35.625 32.3077V29.6923ZM48.75 21.5385V24.3077L46.875 25.3846L48.75 21.5385Z" fill="white"/>
<path d="M27.25 22.3076L26 20.1538C25.75 19.8461 25.5 19.6923 25.125 19.6923L23.625 19.8461C23.375 19.8461 23.125 20.1538 23.125 20.4615C23.125 20.7692 23.375 21.0769 23.625 21.0769L25.375 21.3846L27.25 22.3076Z" fill="#CC291F"/>
<path opacity="0.39" d="M27.25 22.3076L26 20.1538C25.75 19.8461 25.5 19.6923 25.125 19.6923L23.625 19.8461C23.375 19.8461 23.125 20.1538 23.125 20.4615C23.125 20.7692 23.375 21.0769 23.625 21.0769L25.375 21.3846L27.25 22.3076Z" fill="black"/>
<path d="M32.125 18.3077C32.125 18.4615 32.25 18.4615 32.375 18.4615L38 16.6153C38.125 16.6153 38.125 16.4615 38.125 16.3077C38.125 16.1538 38 16.1538 37.875 16.1538L32.25 18C32.125 18 32.125 18.1538 32.125 18.3077ZM29 20.3077C29 20.4615 29.125 20.4615 29.25 20.4615L34.875 18.6153C35 18.6153 35 18.4615 35 18.3077C35 18.1538 34.875 18.1538 34.75 18.1538L29.125 20C29 20 29 20.1538 29 20.3077Z" fill="black"/>
<path opacity="0.5" d="M39.125 16C39.25 15.0769 39.125 14.1539 38.625 13.6923C37.75 12.9231 36.375 13.3846 35.375 14.9231C34.5 16.1539 34.25 17.6923 34.75 18.6154L35.625 18.1539C35.25 17.5385 35.375 16.3077 36 15.3846C36.75 14.3077 37.75 13.8462 38.375 14.4616C38.75 14.7692 38.75 15.5385 38.5 16.3077L39.125 16Z" fill="black"/>
<path opacity="0.39" d="M41.625 15.3846L29.125 23.0769L22.5 13.8461L35 6.15381L41.625 15.3846ZM48.75 20.7692L35.625 28.923V32.7692L48.75 24.7692V20.7692Z" fill="black"/>
</svg>
