<svg width="50" height="40" viewBox="0 0 50 40" fill="none" xmlns="http://www.w3.org/2000/svg">
<path d="M35.7165 14.5454V38.709L28.5739 27.109C28.4172 26.8326 28.3347 26.5191 28.3347 26.2C28.3347 25.8808 28.4172 25.5673 28.5739 25.2909L34.1809 15.509C34.3298 15.2241 34.5505 14.9846 34.8204 14.8153C35.0903 14.6459 35.3996 14.5528 35.7165 14.5454Z" fill="#388E3C"/>
<path d="M49.7696 39.0909C49.6123 39.3683 49.3857 39.5985 49.1129 39.7582C48.8401 39.9178 48.5307 40.0012 48.2161 39.9999H37.5022C37.1987 40.0006 36.9001 39.9224 36.6346 39.7729C36.369 39.6234 36.1452 39.4074 35.9844 39.1454L35.7166 38.709V14.5454C36.0282 14.5473 36.3339 14.6322 36.6033 14.7917C36.8727 14.9512 37.0964 15.1797 37.2522 15.4545L49.7518 37.2727C49.9112 37.5475 49.9968 37.8602 49.9999 38.1793C50.0031 38.4985 49.9236 38.8129 49.7696 39.0909Z" fill="#2E7D32"/>
<path d="M19.6457 7.27283V18.1819H11.9496L18.1279 8.12738C18.2887 7.86535 18.5125 7.64939 18.7781 7.49987C19.0436 7.35035 19.3422 7.27221 19.6457 7.27283Z" fill="#FAFAFA"/>
<path d="M19.6457 18.1819V40.0001H1.78923C1.47018 40.0007 1.15678 39.9143 0.881639 39.7498C0.606496 39.5854 0.379656 39.3489 0.224711 39.0649C0.0697662 38.7809 -0.00762315 38.4598 0.000592204 38.1351C0.00880756 37.8103 0.102328 37.4937 0.271425 37.2182L11.9496 18.1819H19.6457Z" fill="#66BB6A"/>
<path d="M33.9309 0V10.9091C32.5101 10.9091 31.1476 10.3344 30.143 9.31149C29.1383 8.28856 28.5739 6.90118 28.5739 5.45454C28.5739 4.00791 29.1383 2.62052 30.143 1.5976C31.1476 0.574674 32.5101 0 33.9309 0Z" fill="#FFEE58"/>
<path d="M27.3419 18.1819H19.6457V7.27283C19.9492 7.27221 20.2478 7.35035 20.5133 7.49987C20.7789 7.64939 21.0027 7.86535 21.1635 8.12738L27.3419 18.1819Z" fill="#CFD8DC"/>
<path d="M39.0557 39.0546C38.903 39.3388 38.6784 39.5764 38.4053 39.7426C38.1322 39.9088 37.8204 39.9977 37.5022 40.0001H19.6457V18.1819H27.3419L39.02 37.2182C39.1855 37.4935 39.2761 37.8088 39.2823 38.1315C39.2886 38.4542 39.2104 38.7728 39.0557 39.0546Z" fill="#43A047"/>
<path d="M39.2878 5.45454C39.2878 6.90118 38.7234 8.28856 37.7188 9.31149C36.7142 10.3344 35.3516 10.9091 33.9309 10.9091V0C35.3516 0 36.7142 0.574674 37.7188 1.5976C38.7234 2.62052 39.2878 4.00791 39.2878 5.45454Z" fill="#FDD835"/>
</svg>
