<svg width="50" height="30" viewBox="0 0 50 30" fill="none" xmlns="http://www.w3.org/2000/svg">
<g clip-path="url(#clip0_113_2)">
<path d="M0 3.52594V2.5C0 1.83696 0.32924 1.20107 0.915291 0.732233C1.50134 0.263392 2.2962 0 3.125 0L46.875 0C47.7038 0 48.4987 0.263392 49.0847 0.732233C49.6708 1.20107 50 1.83696 50 2.5V3.52594L25 16.0259L0 3.52594ZM25.8281 18.5603C25.5797 18.6843 25.2928 18.7501 25 18.7501C24.7072 18.7501 24.4203 18.6843 24.1719 18.5603L0 6.47406V27.5C0 28.163 0.32924 28.7989 0.915291 29.2678C1.50134 29.7366 2.2962 30 3.125 30H46.875C47.7038 30 48.4987 29.7366 49.0847 29.2678C49.6708 28.7989 50 28.163 50 27.5V6.47406L25.8281 18.5603Z" fill="white"/>
</g>
<defs>
<clipPath id="clip0_113_2">
<rect width="50" height="30" fill="white"/>
</clipPath>
</defs>
</svg>
