<svg width="120" height="120" viewBox="0 0 120 120" fill="none" xmlns="http://www.w3.org/2000/svg">
<g clip-path="url(#clip0_24_39)">
<path d="M61.7697 35.7349C61.5387 35.5032 61.2616 35.3198 60.9546 35.1929C60.6644 35.0732 60.3574 35.0159 60.0485 35.0098C60.0314 35.0095 60.0171 35 60 35C59.9881 35 59.978 35.0064 59.9661 35.0067C59.6524 35.011 59.3393 35.0711 59.0448 35.1929C58.7378 35.3198 58.4616 35.5032 58.2306 35.7349L35.7327 58.2327C34.7968 59.2014 34.7968 60.7373 35.7327 61.7062C36.6919 62.6993 38.2745 62.7267 39.2676 61.7676L57.5 43.5349V82.5027C57.5009 83.8828 58.62 85.0009 60 85H60.003C61.3827 84.9991 62.5009 83.88 62.5 82.5V43.5349L80.7324 61.7676C81.2006 62.2372 81.8368 62.5009 82.5 62.5C83.1625 62.5 83.7982 62.2366 84.267 61.7682C85.2432 60.7919 85.2438 59.209 84.2676 58.2327L61.7697 35.7349ZM60 10C32.3859 10 10 32.3859 10 60C10 87.6141 32.3859 110 60 110C87.6007 109.968 109.968 87.6007 110 60C110 32.3859 87.6141 10 60 10ZM60 105C35.1471 105 15 84.8529 15 60C15 35.1471 35.1471 15 60 15C84.8413 15.0281 104.972 35.1587 105 60C105 84.8529 84.8529 105 60 105Z" fill="white" fill-opacity="0.6"/>
</g>
<defs>
<clipPath id="clip0_24_39">
<rect width="120" height="120" fill="white"/>
</clipPath>
</defs>
</svg>
