<svg width="210" height="200" viewBox="0 0 210 200" fill="none" xmlns="http://www.w3.org/2000/svg">
<g clip-path="url(#clip0_15_263)">
<path d="M59.1802 72.6364C59.126 75.9789 59.3849 79.3155 59.9483 82.5364C60.5689 85.2908 61.3162 87.9686 62.1841 90.548C62.4948 91.3108 62.6643 92.1975 62.6731 93.1066C62.6731 94.2187 62.2539 95.3321 61.3461 96.4435L56.946 101.116C56.4152 101.725 55.7839 102.072 55.1303 102.116C54.3348 102.029 53.588 101.474 53.0351 100.559C52.0937 98.9488 51.2514 97.1981 50.5199 95.3314C49.8216 93.4404 49.1225 91.3256 48.3548 88.7683C42.907 99.0002 36.0622 104.116 27.8203 104.116C21.9514 104.116 17.2739 101.446 13.8516 96.1046C10.4294 90.7636 8.68307 83.6485 8.68307 74.75C8.68307 65.295 10.7783 57.6198 15.039 51.8356C19.2997 46.0514 24.9565 43.1589 32.1504 43.1589C34.628 43.1912 37.1014 43.4886 39.5539 44.0491C42.1382 44.6055 44.7924 45.495 47.5858 46.4964V38.3761C47.5858 29.9195 46.468 24.0272 44.3033 20.5784C42.0675 17.1302 38.2967 15.4618 32.9186 15.4618C30.3769 15.4616 27.8444 15.947 25.3753 16.9077C22.8078 17.8819 20.287 19.1457 17.8321 20.6896C17.0378 21.2556 16.2212 21.7386 15.3875 22.1355C15.0259 22.3255 14.6499 22.4377 14.2696 22.4694C13.2919 22.4694 12.8028 21.3573 12.8028 19.0212V13.5708C12.8028 11.7904 12.9426 10.4552 13.2919 9.67755C13.8189 8.66363 14.4894 7.86306 15.2482 7.34148C18.0496 5.13398 21.003 3.4542 24.0486 2.33615C27.6076 0.881779 31.2702 0.171302 34.9443 0.222625C43.2573 0.222625 49.3321 3.22569 53.2435 9.23246C57.085 15.2392 59.0405 24.3603 59.0405 36.5964V72.6364H59.1802ZM30.8237 89.544C33.274 89.5011 35.7035 88.8249 38.0177 87.5418C40.5812 86.1294 42.8684 83.6745 44.6526 80.4204C45.7785 78.3701 46.5913 75.9327 47.0273 73.299C47.5072 70.1306 47.7417 66.8806 47.7256 63.6215V58.9544C45.6079 58.1334 43.463 57.5021 41.301 57.0635C39.1231 56.6241 36.93 56.4022 34.7347 56.399C30.0552 56.399 26.6329 57.8449 24.3281 60.8499C22.0233 63.8549 20.9058 68.08 20.9058 73.6417C20.9058 78.8696 21.7442 82.7628 23.4901 85.4327C25.1669 88.2139 27.6111 89.5485 30.8237 89.5485V89.544ZM86.9082 101.558C85.651 101.558 84.813 101.224 84.2541 100.445C83.6951 99.7779 83.2065 98.22 82.7873 96.1071L66.3733 10.1226C66.0551 8.68332 65.8442 7.18946 65.7449 5.67177C65.7449 3.89142 66.3038 2.89061 67.4217 2.89061H74.2663C75.5933 2.89061 76.502 3.22442 76.9903 4.00269C77.5492 4.67032 77.968 6.22813 78.3876 8.34102L90.1213 81.9782L101.017 8.34293C101.366 6.11749 101.785 4.67223 102.344 4.0046C102.903 3.33696 103.88 2.89251 105.138 2.89251H110.728C112.055 2.89251 112.963 3.22633 113.522 4.0046C114.081 4.67223 114.57 6.23003 114.849 8.34293L125.885 82.8703L137.964 8.34293C138.383 6.11749 138.872 4.67223 139.361 4.0046C139.92 3.33696 140.828 2.89251 142.085 2.89251H148.581C149.699 2.89251 150.327 3.78269 150.327 5.67367C150.311 6.27216 150.264 6.86756 150.187 7.45402C150.078 8.40288 149.914 9.33381 149.698 10.2352L132.866 96.2197C132.447 98.4443 131.958 99.8904 131.399 100.558C130.61 101.363 129.681 101.752 128.745 101.67H122.738C121.411 101.67 120.502 101.336 119.943 100.558C119.384 99.7798 118.896 98.3326 118.616 96.1071L107.791 24.3603L97.0349 95.9959C96.6856 98.2213 96.2668 99.6666 95.7079 100.447C95.1489 101.227 94.1712 101.559 92.9132 101.559L86.9082 101.558ZM176.657 104.561C173.035 104.567 169.425 103.895 165.902 102.558C162.409 101.223 159.685 99.7772 157.87 98.1075C156.752 97.1067 155.984 95.994 155.705 94.9919C155.433 94.0099 155.29 92.9495 155.285 91.8763V86.2071C155.285 83.8711 155.844 82.759 156.892 82.759C157.32 82.7613 157.744 82.874 158.149 83.0928C158.568 83.3153 159.197 83.7604 159.895 84.2049C162.362 85.933 164.938 87.2381 167.578 88.0981C170.314 88.9826 173.098 89.4299 175.89 89.4334C180.29 89.4334 183.712 88.21 186.087 85.7627C187.225 84.6694 188.16 83.1157 188.798 81.2595C189.437 79.4034 189.755 77.3111 189.72 75.1957C189.745 73.7637 189.591 72.3382 189.267 71.0016C188.943 69.6651 188.457 68.444 187.835 67.4092C186.577 65.2957 184.201 63.4034 180.78 61.6231L170.651 56.6184C165.552 54.0604 161.781 50.2784 159.476 45.2718C157.228 40.6554 156 34.985 155.984 29.1425C155.927 24.8355 156.577 20.5795 157.87 16.7951C159.117 13.2165 160.833 10.1061 162.9 7.67402C165.077 5.04935 167.539 3.08772 170.164 1.88789C173.023 0.57723 175.987 -0.0588015 178.962 8.14835e-05C180.527 -0.0179796 182.09 0.130715 183.642 0.445169C185.248 0.778984 186.716 1.22407 188.182 1.66852C189.579 2.22488 190.906 2.78061 192.163 3.44887C193.182 3.95096 194.165 4.62206 195.096 5.45113C195.919 6.11161 196.635 7.06292 197.192 8.23229C197.646 9.31472 197.866 10.6032 197.82 11.903V17.1309C197.82 19.4669 197.261 20.6916 196.213 20.6916C195.654 20.6916 194.747 20.2465 193.559 19.3563C189.578 16.4641 185.108 15.018 180.149 15.018C176.168 15.018 173.025 16.0188 170.86 18.1336C168.695 20.2484 167.578 23.4746 167.578 28.0336C167.558 29.5107 167.735 30.9775 168.096 32.3384C168.457 33.6993 168.994 34.9236 169.673 35.9313C171.07 38.0449 173.654 40.1584 177.356 42.0494L187.274 47.0522C192.304 49.6108 195.934 53.1702 198.099 57.7305C200.231 62.2051 201.362 67.6869 201.312 73.3034C201.348 77.7713 200.726 82.1905 199.496 86.2065C198.257 90.0137 196.518 93.3521 194.398 95.9952C192.092 98.8539 189.459 100.97 186.645 102.226C183.41 103.811 180.042 104.599 176.657 104.563L176.657 104.561Z" fill="#2D3134"/>
<path d="M189.858 158.619C166.879 185.649 133.494 199.998 104.788 199.998C64.5579 200.001 28.3089 176.307 0.930982 136.931C-1.2341 133.815 0.721381 129.589 3.30566 132.035C32.9193 159.399 69.4478 175.971 107.233 175.971C132.726 175.971 160.733 167.514 186.506 150.164C190.347 147.383 193.63 154.17 189.859 158.621L189.858 158.619Z" fill="#FF9900"/>
<path d="M199.427 141.268C196.493 135.262 180.01 138.376 172.536 139.822C170.301 140.267 169.952 137.152 171.978 134.817C185.108 120.134 206.69 124.361 209.204 129.255C211.72 134.261 208.506 168.632 196.213 185.095C194.328 187.654 192.512 186.319 193.35 182.982C196.144 171.969 202.36 147.164 199.427 141.268Z" fill="#FF9900"/>
</g>
<defs>
<clipPath id="clip0_15_263">
<rect width="210" height="200" fill="white"/>
</clipPath>
</defs>
</svg>
