<svg width="175" height="175" viewBox="0 0 175 175" fill="none" xmlns="http://www.w3.org/2000/svg">
<g clip-path="url(#clip0_15_160)">
<path d="M0 152.435C0 164.899 10.1028 175 22.5647 175H152.435C164.899 175 175 164.897 175 152.435V22.5654C175 10.1015 164.897 0 152.435 0H22.5654C10.1015 0 0 10.1028 0 22.5647V152.435V152.435Z" fill="#7326E8"/>
<path d="M72.5689 77.4088V52.6265H94.3831C96.4612 52.6265 98.4642 52.7994 100.393 53.146C102.322 53.4919 104.029 54.1099 105.513 55.0006C106.997 55.8913 108.184 57.1279 109.075 58.7105C109.965 60.2937 110.411 62.3219 110.411 64.7944C110.411 69.2467 109.075 72.4623 106.403 74.4406C103.733 76.4196 100.319 77.4088 96.1639 77.4088H72.5689ZM49.27 34.5215V140.479H100.616C105.365 140.479 109.99 139.885 114.492 138.698C118.993 137.51 123 135.68 126.512 133.207C130.024 130.734 132.819 127.543 134.896 123.635C136.974 119.727 138.013 115.102 138.013 109.76C138.013 103.131 136.405 97.4675 133.19 92.7685C129.974 88.0688 125.102 84.7793 118.572 82.8994C123.321 80.6244 126.908 77.7055 129.332 74.1439C131.755 70.5824 132.967 66.1309 132.967 60.7879C132.967 55.8414 132.151 51.6865 130.519 48.3226C128.886 44.9593 126.586 42.2632 123.618 40.235C120.65 38.2067 117.089 36.7473 112.933 35.8572C108.778 34.9665 104.178 34.5215 99.132 34.5215H49.27ZM72.5689 122.374V93.2873H97.9446C102.99 93.2873 107.047 94.4494 110.114 96.775C113.181 99.0999 114.715 102.983 114.715 108.424C114.715 111.195 114.244 113.47 113.304 115.25C112.364 117.031 111.103 118.442 109.52 119.48C107.937 120.519 106.107 121.261 104.029 121.706C101.951 122.151 99.7753 122.374 97.4996 122.374H72.5689Z" fill="white"/>
</g>
<defs>
<clipPath id="clip0_15_160">
<rect width="175" height="175" fill="white"/>
</clipPath>
</defs>
</svg>
