<svg width="170" height="175" viewBox="0 0 170 175" fill="none" xmlns="http://www.w3.org/2000/svg">
<path d="M17.3373 154.179L3.98438 0H150.716L137.349 154.156L77.261 171.305L17.3373 154.179Z" fill="#1572B6"/>
<path d="M85.0013 160.046L133.556 146.188L144.979 14.4539H85.0013V160.046Z" fill="#33A9DC"/>
<path d="M85.0013 70.3131H109.309L110.987 50.9496H85.0013V32.04H131.063L130.622 37.1137L126.107 89.2227H85.0013V70.3131Z" fill="white"/>
<path d="M85.1102 119.422L85.0292 119.447L64.5721 113.761L63.2639 98.6794H44.8269L47.3995 128.371L85.0266 139.121L85.1102 139.096V119.422Z" fill="#EBEBEB"/>
<path d="M107.747 88.4229L105.534 113.746L85.0465 119.439V139.113L122.704 128.369L122.98 125.174L126.176 88.4229H107.747Z" fill="white"/>
<path d="M85.0637 32.04V50.9496H40.6937L40.3259 46.7004L39.4891 37.1137L39.0495 32.04H85.0637ZM85.0013 70.3158V89.2254H64.8019L64.434 84.9762L63.5959 75.3895L63.1577 70.3158H85.0013Z" fill="#EBEBEB"/>
</svg>
