<svg width="175" height="175" viewBox="0 0 175 175" fill="none" xmlns="http://www.w3.org/2000/svg">
<g clip-path="url(#clip0_15_197)">
<path d="M58.3334 175C74.4334 175 87.5 161.933 87.5 145.833V116.667H58.3334C42.2334 116.667 29.1667 129.733 29.1667 145.833C29.1667 161.933 42.2334 175 58.3334 175Z" fill="#0ACF83"/>
<path d="M29.1667 87.4999C29.1667 71.3999 42.2334 58.3333 58.3334 58.3333H87.5V116.667H58.3334C42.2334 116.667 29.1667 103.6 29.1667 87.4999Z" fill="#A259FF"/>
<path d="M29.1667 29.1667C29.1667 13.0667 42.2334 0 58.3334 0H87.5V58.3333H58.3334C42.2334 58.3333 29.1667 45.2667 29.1667 29.1667Z" fill="#F24E1E"/>
<path d="M87.5 0H116.667C132.767 0 145.833 13.0667 145.833 29.1667C145.833 45.2667 132.767 58.3333 116.667 58.3333H87.5V0Z" fill="#FF7262"/>
<path d="M145.833 87.4999C145.833 103.6 132.767 116.667 116.667 116.667C100.567 116.667 87.5 103.6 87.5 87.4999C87.5 71.3999 100.567 58.3333 116.667 58.3333C132.767 58.3333 145.833 71.3999 145.833 87.4999Z" fill="#1ABCFE"/>
</g>
<defs>
<clipPath id="clip0_15_197">
<rect width="175" height="175" fill="white"/>
</clipPath>
</defs>
</svg>
