<svg width="175" height="175" viewBox="0 0 175 175" fill="none" xmlns="http://www.w3.org/2000/svg">
<g clip-path="url(#clip0_15_171)">
<path d="M172.7 80.7028L96.293 4.30022C91.8954 -0.100073 84.7587 -0.100073 80.3557 4.30022L64.4894 20.1664L84.6165 40.2935C89.2936 38.713 94.6571 39.7733 98.3854 43.5016C102.132 47.2538 103.184 52.6631 101.566 57.3553L120.962 76.753C125.655 75.1363 131.07 76.1822 134.818 79.9364C140.057 85.1728 140.057 93.6596 134.818 98.8993C129.579 104.14 121.092 104.14 115.849 98.8993C111.909 94.955 110.936 89.1684 112.93 84.3142L94.841 66.2249L94.839 113.828C96.1503 114.477 97.3479 115.333 98.3854 116.364C103.624 121.601 103.624 130.088 98.3854 135.332C93.1457 140.57 84.6548 140.57 79.4226 135.332C74.1842 130.088 74.1842 121.601 79.4226 116.365C80.6779 115.109 82.1698 114.115 83.8119 113.439V65.3916C82.1674 64.7203 80.6747 63.7251 79.4226 62.4652C75.4536 58.5017 74.4993 52.6782 76.533 47.8048L56.6924 27.9621L4.30176 80.3493C-0.100586 84.7537 -0.100586 91.8911 4.30176 96.2921L80.7098 172.696C85.1087 177.097 92.244 177.097 96.6484 172.696L172.699 96.6469C177.1 92.2446 177.1 85.1031 172.699 80.7028" fill="#DE4C36"/>
</g>
<defs>
<clipPath id="clip0_15_171">
<rect width="175" height="175" fill="white"/>
</clipPath>
</defs>
</svg>
