<svg width="150" height="175" viewBox="0 0 150 175" fill="none" xmlns="http://www.w3.org/2000/svg">
<path d="M13.6364 157.227L0 0H150L136.364 157.227L74.8337 175" fill="#E34F26"/>
<path d="M75.1663 161.328L124.723 147.314L136.364 12.6465H75.1663" fill="#EF652A"/>
<path d="M75.1663 71.0938H50.2217L48.5588 51.2695H75.1663V32.1289H27.9379L32.9268 90.5762H75.1663V71.0938ZM74.8337 121.338L53.8803 115.527L52.5499 100.146H33.9246L36.2528 130.566L74.8337 141.504V121.338Z" fill="#EBEBEB"/>
<path d="M74.8337 71.0938V90.5762H98.1153L95.7871 115.527L74.8337 121.338V141.504L113.415 130.566L118.736 71.0938H74.8337ZM74.8337 32.1289V51.2695H120.399L122.062 32.1289H74.8337Z" fill="white"/>
</svg>
