<svg width="175" height="175" viewBox="0 0 175 175" fill="none" xmlns="http://www.w3.org/2000/svg">
<g clip-path="url(#clip0_15_157)">
<path d="M0 0H175V175H0V0Z" fill="#F7DF1E"/>
<path d="M46.014 146.243L59.4057 138.138C61.9896 142.719 64.3398 146.595 69.9774 146.595C75.3812 146.595 78.789 144.481 78.789 136.259V80.3421H95.2342V136.491C95.2342 153.524 85.2496 161.278 70.6822 161.278C57.5265 161.278 49.89 154.464 46.0134 146.241M104.167 144.48L117.557 136.728C121.082 142.484 125.664 146.713 133.768 146.713C140.583 146.713 144.928 143.306 144.928 138.607C144.928 132.969 140.464 130.971 132.946 127.683L128.836 125.919C116.97 120.87 109.1 114.526 109.1 101.134C109.1 88.7995 118.498 79.4015 133.182 79.4015C143.637 79.4015 151.155 83.0437 156.558 92.5586L143.753 100.782C140.933 95.7312 137.88 93.7344 133.181 93.7344C128.365 93.7344 125.31 96.7887 125.31 100.782C125.31 105.716 128.365 107.714 135.412 110.768L139.524 112.53C153.503 118.522 161.373 124.629 161.373 138.372C161.373 153.175 149.744 161.28 134.12 161.28C118.85 161.28 108.982 153.997 104.166 144.481" fill="black"/>
</g>
<defs>
<clipPath id="clip0_15_157">
<rect width="175" height="175" fill="white"/>
</clipPath>
</defs>
</svg>
