<svg width="175" height="200" viewBox="0 0 175 200" fill="none" xmlns="http://www.w3.org/2000/svg">
<path fill-rule="evenodd" clip-rule="evenodd" d="M119.299 156.467C119.53 155.959 119.752 155.511 119.941 155.047C120.06 154.75 120.243 154.691 120.501 154.698C122.05 154.748 123.599 154.803 125.15 154.82C126.466 154.836 127.786 154.808 129.104 154.791C130.588 154.77 132.073 154.681 133.556 154.73C135.532 154.795 137.457 155.237 139.244 156.242C141.378 157.444 142.993 159.273 144.093 161.684C144.796 163.223 145.204 164.856 145.366 166.591C145.601 169.103 145.447 171.558 144.75 173.961C143.886 176.939 142.245 179.219 139.966 180.927C138.212 182.241 136.288 183.017 134.226 183.461C132.044 183.931 129.855 183.78 127.667 183.787C125.266 183.798 122.866 183.739 120.466 183.708C120.046 183.703 119.986 183.612 120.096 183.155L120.199 182.733C120.433 181.892 120.559 181.855 121.305 181.714C121.822 181.619 122.358 181.397 122.791 181.069C123.043 180.878 123.147 180.381 123.245 179.998C123.33 179.664 123.334 179.297 123.337 178.944C123.371 173.592 123.406 168.242 123.426 162.894C123.43 161.542 123.402 160.187 123.337 158.837C123.29 157.892 122.849 157.245 121.864 157.022C121.099 156.848 120.328 156.714 119.558 156.559L119.299 156.467ZM141.278 169.425C141.174 168.359 141.124 167.284 140.957 166.234C140.558 163.714 139.593 161.519 137.897 159.798C135.156 157.019 131.856 156.591 128.397 156.922C127.609 156.997 127.44 157.305 127.427 158.23C127.408 159.542 127.389 160.855 127.388 162.167C127.382 166.33 127.382 170.492 127.388 174.655C127.389 175.839 127.4 177.023 127.43 178.205C127.463 179.414 127.847 180.437 128.883 180.906C130.517 181.645 132.236 181.733 133.95 181.431C136.689 180.952 138.604 179.128 139.889 176.395C140.906 174.227 141.194 171.859 141.278 169.425ZM147.935 183.598C147.902 182.95 148.135 182.414 148.422 181.922C148.5 181.789 148.768 181.795 148.952 181.753L150.519 181.398C151.073 181.264 151.364 180.839 151.442 180.219C151.494 179.809 151.543 179.395 151.547 178.981C151.581 175.705 151.614 172.428 151.628 169.152C151.642 165.87 151.631 162.589 151.631 159.308L151.618 158.681C151.562 157.627 151.117 157.08 150.201 156.925L148.214 156.58C147.969 156.542 147.88 156.408 147.969 156.159C148.122 155.736 148.269 155.297 148.485 154.916C148.565 154.775 148.837 154.72 149.021 154.725C149.97 154.741 150.918 154.822 151.867 154.82L160.126 154.764C161.718 154.762 163.254 155.08 164.682 155.95C166.253 156.906 167.132 158.386 167.383 160.402C167.646 162.519 167.084 164.303 165.73 165.72C165.174 166.305 164.454 166.686 163.808 167.161L163.598 167.311C164.196 167.562 164.767 167.78 165.322 168.039C166.946 168.8 168.238 169.989 168.921 171.887C169.462 173.386 169.462 174.948 169.142 176.502C168.644 178.933 167.243 180.55 165.42 181.773C163.71 182.922 161.859 183.591 159.887 183.703C158.069 183.808 156.242 183.769 154.42 183.792L153.364 183.798C151.609 183.753 149.852 183.702 148.095 183.648L147.935 183.598ZM155.505 174.084H155.523C155.523 175.112 155.511 176.141 155.527 177.169C155.538 177.834 155.518 178.519 155.643 179.159C155.832 180.117 156.215 180.981 157.155 181.256C158.426 181.63 159.723 181.705 161.008 181.45C162.617 181.13 163.901 180.208 164.605 178.456C165.128 177.155 165.205 175.775 165.026 174.366C164.788 172.509 163.926 171.162 162.492 170.28C161.551 169.7 160.547 169.345 159.478 169.298C158.281 169.247 157.082 169.244 155.884 169.202C155.548 169.191 155.501 169.386 155.503 169.702C155.509 171.161 155.505 172.622 155.505 174.084ZM158.055 167.092C158.71 167.055 159.451 167.044 160.188 166.959C161.599 166.798 162.593 165.987 163.111 164.445C163.375 163.662 163.364 162.856 163.371 162.042C163.391 159.922 162.308 158.184 160.546 157.466C159.186 156.911 157.783 156.902 156.372 156.945C155.801 156.962 155.545 157.248 155.537 157.906L155.452 166.483C155.448 166.823 155.576 166.97 155.866 166.981L158.055 167.092Z" fill="#94795D"/>
<path fill-rule="evenodd" clip-rule="evenodd" d="M14.4143 181.95L14.3145 183.425C13.3848 183.425 12.5275 183.417 11.6703 183.428C10.0557 183.447 8.44102 183.477 6.82501 183.503L6.66915 183.514C6.43809 183.483 6.01837 183.483 6.00743 183.405C5.93907 182.966 5.96095 182.505 5.97872 182.05C5.98009 181.998 6.13731 181.933 6.22891 181.908L7.48536 181.588C8.26876 181.355 8.54493 180.969 8.58184 180.044C8.62423 179.002 8.66661 177.958 8.67071 176.916C8.68302 174.35 8.66934 171.787 8.67891 169.222C8.68028 168.622 8.49844 168.175 8.00899 167.931C7.42657 167.637 6.84141 167.35 6.25216 167.078C5.97325 166.95 5.61094 166.88 5.64376 166.452C5.67657 166.016 6.02794 165.902 6.3588 165.816C7.72872 165.458 9.10001 165.109 10.4658 164.728C10.9061 164.605 11.3272 164.397 11.8535 164.188C11.8809 164.513 11.9315 164.822 11.926 165.131L11.8453 166.602C11.844 166.767 11.9191 166.989 12.0272 167.081C12.0928 167.139 12.3129 167.034 12.4223 166.937C13.5899 165.922 14.8258 165.045 16.2354 164.534C18.4188 163.742 20.2932 164.477 21.6057 166.628C22.0678 167.386 22.0691 167.386 22.7104 166.856C23.8109 165.942 24.9621 165.136 26.25 164.605C29.0774 163.437 31.794 164.919 32.777 168.173C33.1352 169.355 33.2719 170.575 33.2691 171.822L33.2432 180.1C33.2418 180.783 33.44 181.172 34.0088 181.384C34.6473 181.623 35.309 181.788 36.0281 182.003L35.8613 183.427C35.0438 183.427 34.2918 183.42 33.5399 183.428C31.7024 183.447 29.8649 183.458 28.0287 183.506C27.7088 183.516 27.6254 183.425 27.609 183.083C27.5557 181.987 27.5475 181.989 28.4498 181.742L28.7533 181.653C29.6352 181.378 29.9291 181.069 29.9359 180.047C29.9565 177.113 30.0098 174.17 29.8799 171.242C29.7445 168.205 27.635 166.587 25.0592 167.366C24.2184 167.619 23.4568 168.062 22.7486 168.637C22.5094 168.833 22.4643 169.058 22.4834 169.4C22.5559 170.694 22.601 171.989 22.6106 173.284C22.627 175.552 22.6024 177.819 22.6106 180.087C22.6133 181.006 22.8881 181.358 23.6824 181.57L24.8623 181.881L25.0811 181.938C25.0975 182.369 25.1125 182.8 25.0947 183.231C25.0838 183.502 24.9006 183.525 24.6955 183.52C23.5484 183.488 22.4 183.444 21.2529 183.447C19.857 183.45 18.4625 183.495 17.068 183.523H16.7399C16.7399 183.066 16.7207 182.628 16.7535 182.192C16.7604 182.087 16.9217 181.941 17.0324 181.908L18.4078 181.575C18.9916 181.411 19.2705 181.069 19.3033 180.391C19.4592 177.25 19.5713 174.108 19.3129 170.969C19.2623 170.359 19.0887 169.741 18.8672 169.18C18.1631 167.402 16.5785 166.659 14.7506 167.194C13.8824 167.447 13.099 167.902 12.358 168.475C12.008 168.747 11.8412 169.106 11.8412 169.561C11.8412 172.694 11.8508 175.827 11.859 178.958L11.874 180.166C11.8904 181.008 12.2035 181.452 12.935 181.633C13.4053 181.755 13.8811 181.837 14.4143 181.95Z" fill="#50382B"/>
<path fill-rule="evenodd" clip-rule="evenodd" d="M97.0717 164.508C97.2836 165.686 97.2795 166.745 96.5221 167.549C95.7701 168.347 94.8186 168.078 93.8902 167.9C93.9764 168.459 94.0721 168.934 94.1186 169.416C94.4563 172.992 93.1096 175.647 90.207 177.164C89.1106 177.736 87.9471 177.949 86.759 178.058C86.1684 178.111 85.6516 178.627 85.5955 179.181C85.5381 179.744 85.8471 180.322 86.465 180.491C87.1938 180.689 87.9539 180.745 88.7018 180.844C90.3068 181.053 91.9297 181.149 93.5156 181.477C95.9137 181.97 97.2521 184.363 96.8297 187.116C96.4537 189.566 95.2123 191.349 93.4814 192.716C90.5652 195.025 87.366 195.7 83.959 194.522C82.0107 193.847 80.6367 192.383 80.1623 190.014C79.9244 188.828 80.1773 187.755 80.958 186.95C81.8863 185.997 82.8967 185.147 83.8688 184.247L84.1832 183.886L83.8223 183.597C82.8311 183.059 82.0381 182.324 81.7305 181.045C81.6252 180.613 81.7346 180.328 82.0559 180.106C82.6027 179.73 83.1469 179.347 83.6869 178.958C83.9412 178.777 84.1928 178.589 84.4293 178.38C84.752 178.099 84.7232 177.889 84.3377 177.727C83.4408 177.349 82.6437 176.8 82.0258 175.956C80.9936 174.549 80.701 172.872 80.7857 171.102C80.9184 168.336 82.2322 166.514 84.3678 165.342C86.9066 163.95 89.4537 163.863 92.0418 165.131C92.9988 165.6 94.0078 165.7 95.0346 165.619C95.8016 165.556 96.4715 165.225 97.0717 164.508ZM87.716 184.322C85.8102 184.303 85.2127 184.572 84.0943 185.874C82.842 187.333 82.8488 189.356 84.0984 190.822C85.0473 191.933 86.2313 192.453 87.5479 192.609C89.0859 192.791 90.6008 192.717 91.998 191.838C93.4883 190.895 94.2293 189.145 93.8943 187.383C93.6168 185.928 92.6789 185.263 91.5373 184.88C90.2385 184.445 88.8959 184.363 87.716 184.322ZM83.9727 170.403C84.0424 171.008 84.0711 171.62 84.1887 172.213C84.4936 173.747 85.0773 175.095 86.4131 175.778C87.9813 176.583 89.9842 176.238 90.6705 173.722C91.1408 171.999 91.0834 170.288 90.516 168.606C90.2631 167.856 89.8557 167.222 89.2719 166.756C87.9102 165.67 85.4533 165.527 84.4525 167.927C84.1271 168.706 84 169.536 83.9727 170.403Z" fill="#4F382B"/>
<path fill-rule="evenodd" clip-rule="evenodd" d="M64.7363 164.122C64.7869 164.389 64.8881 164.692 64.8908 164.997C64.8949 165.577 64.8402 166.156 64.8115 166.736V167.239L65.2408 166.864C66.4166 165.758 67.6799 164.816 69.151 164.308C71.8061 163.394 74.4584 165.055 75.3238 168.145C75.652 169.32 75.7818 170.528 75.7941 171.756C75.8215 174.484 75.8379 177.212 75.8625 179.941C75.8707 180.92 75.9691 181.095 76.7799 181.378C77.2393 181.539 77.7137 181.652 78.1881 181.736C78.4492 181.783 78.5613 181.9 78.5477 182.192L78.5504 182.461C78.5408 183.591 78.4725 183.642 77.5141 183.639C75.2199 183.634 72.9271 183.65 70.633 183.672C69.9494 183.678 69.948 183.702 69.8797 182.93L69.866 182.486C69.9084 181.82 69.9221 181.827 70.4949 181.73C70.8805 181.664 71.2633 181.562 71.6393 181.45C72.0262 181.336 72.2121 181.009 72.2641 180.572C72.29 180.35 72.3242 180.128 72.3228 179.906C72.29 176.925 72.3324 173.941 72.1902 170.964C72.0754 168.556 70.4676 167.122 68.3525 167.286C67.3148 167.369 66.377 167.764 65.5211 168.447C64.9564 168.898 64.843 169.55 64.8457 170.252C64.8566 173.039 64.8799 175.827 64.9059 178.616C64.9113 179.227 64.9264 179.837 64.977 180.444C65.0303 181.106 65.234 181.373 65.8027 181.517C66.3469 181.655 66.902 181.734 67.483 181.845L67.5322 182.358C67.5514 183.553 67.442 183.642 66.4262 183.637C64.0541 183.627 61.682 183.644 59.3113 183.673C58.9381 183.68 58.7795 183.545 58.7891 183.13L58.7836 182.952C58.7221 181.875 58.7494 181.834 59.6408 181.659L60.0619 181.562C61.0271 181.314 61.2746 181.02 61.2883 179.9C61.3334 176.352 61.3498 172.805 61.3812 169.256C61.3854 168.747 61.2172 168.352 60.8016 168.141C60.2191 167.847 59.6313 167.567 59.042 167.291C58.7166 167.137 58.3447 167.041 58.3324 166.527C58.3242 166.164 58.6633 165.844 59.1268 165.736C60.0578 165.52 60.9971 165.341 61.9172 165.077C62.8332 164.816 63.7328 164.466 64.7363 164.122Z" fill="#4F372B"/>
<path fill-rule="evenodd" clip-rule="evenodd" d="M116.026 173.391C115.983 176.705 115.229 179.384 113.179 181.395C110.581 183.947 106.529 184.814 103.216 182.906C101.802 182.092 100.763 180.844 100.086 179.224C99.0486 176.731 98.7889 174.111 99.3303 171.427C99.8662 168.772 101.273 166.849 103.379 165.603C105.544 164.324 107.825 163.824 110.229 164.495C113.271 165.344 115.458 168.178 115.892 171.788C115.97 172.42 116 173.061 116.026 173.391ZM112.503 175.186L112.386 175.17C112.386 174.858 112.401 174.545 112.383 174.233C112.283 172.286 111.9 170.431 110.913 168.802C109.977 167.258 108.701 166.347 107.041 166.214C105.183 166.064 103.622 167.252 103.074 169.42C102.251 172.677 102.529 175.85 103.976 178.833C104.606 180.133 105.54 181.092 106.791 181.597C109.242 182.583 111.416 181.306 112.055 178.438C112.29 177.378 112.358 176.27 112.503 175.186Z" fill="#4F382B"/>
<path fill-rule="evenodd" clip-rule="evenodd" d="M55.8072 173.647C55.7566 176.025 55.2658 178.224 53.9807 180.134C52.6039 182.181 50.7117 183.275 48.5598 183.736C46.0154 184.28 43.6256 183.786 41.5816 181.834C40.6109 180.906 39.9478 179.717 39.5103 178.364C38.7926 176.145 38.6135 173.872 39.0551 171.555C39.5268 169.075 40.7518 167.18 42.6508 165.908C44.8465 164.441 47.2158 163.786 49.7465 164.445C53.0004 165.295 54.8789 167.719 55.5734 171.388C55.7129 172.128 55.732 172.894 55.8072 173.647ZM52.2443 175.216L52.15 175.2V174.753C52.0967 172.572 51.7234 170.494 50.5846 168.681C49.741 167.336 48.6117 166.492 47.1639 166.256C44.8041 165.872 43.2619 167.472 42.7506 169.645C42.0834 172.484 42.2926 175.289 43.3248 177.981C43.9687 179.659 44.9859 180.967 46.5486 181.602C48.985 182.591 51.1916 181.281 51.8082 178.424C52.0352 177.378 52.1035 176.288 52.2443 175.216Z" fill="#4F372B"/>
<path fill-rule="evenodd" clip-rule="evenodd" d="M112.604 52.4126C114.282 57.9548 115.488 63.6126 115.886 69.4751C116.378 76.7501 116.154 83.9751 114.811 91.1298L114.639 91.7017C114.218 91.7032 113.788 91.6423 113.377 91.7157C109.9 92.3407 106.427 92.9876 102.953 93.6314C99.3617 94.297 95.7674 94.936 92.1826 95.6454C90.9125 95.8954 89.3402 95.597 88.8275 97.6032L88.5814 97.6985L88.7551 85.7017L88.5787 56.7548L90.2521 56.4267C92.9879 55.9157 95.7236 55.3954 98.4635 54.897C101.731 54.3048 105.001 53.7267 108.272 53.1485C109.715 52.8954 111.161 52.6595 112.604 52.4126Z" fill="#439934"/>
<path fill-rule="evenodd" clip-rule="evenodd" d="M85.1279 132.673C83.3629 130.939 81.5363 129.281 79.8451 127.456C70.7424 117.644 64.0828 106.092 60.8029 92.1657C59.8992 88.3344 59.2977 84.4391 59.1035 80.4797C58.9668 77.7079 58.7713 74.9125 58.9436 72.1547C59.3988 64.8219 60.3272 57.5594 62.2084 50.4954L62.3123 50.3313C62.4955 50.6094 62.758 50.8563 62.851 51.1704C64.6885 57.3516 66.5109 63.5391 68.3252 69.7313C74.025 89.186 79.718 108.645 85.4273 128.097C85.5395 128.477 85.8279 128.788 86.0357 129.13L85.1279 132.673Z" fill="#45A538"/>
<path fill-rule="evenodd" clip-rule="evenodd" d="M112.604 52.4125C111.159 52.6578 109.714 52.8953 108.272 53.1484C105.001 53.7266 101.731 54.3047 98.4635 54.8969C95.725 55.3937 92.9893 55.9141 90.2521 56.4266L88.5787 56.7547L88.565 55.5078C88.509 54.4828 88.416 53.4578 88.4037 52.4328L88.2164 32.8172C88.1727 28.725 88.107 24.6328 88.0346 20.5422C87.9894 18 87.9416 15.4563 87.8418 12.9172C87.7871 11.5531 87.5943 10.1953 87.5178 8.83125C87.4727 8.04688 87.5328 7.25625 87.5479 6.46875C88.401 8.35781 89.2363 10.2609 90.1127 12.1359C91.4977 15.1 93.7057 17.2844 95.6949 19.6672C103.551 29.0906 109.128 40.0406 112.604 52.4125Z" fill="#46A037"/>
<path fill-rule="evenodd" clip-rule="evenodd" d="M88.5828 97.6983L88.8289 97.603C89.3416 95.5968 90.9139 95.8952 92.184 95.6452C95.7688 94.9358 99.3631 94.2968 102.955 93.6311C106.429 92.9889 109.901 92.3421 113.378 91.7155C113.79 91.6421 114.219 91.703 114.64 91.7014C113.991 94.3514 113.479 97.0593 112.655 99.6358C111.718 102.558 110.586 105.411 109.385 108.208C107.588 112.387 105.35 116.287 102.75 119.861C100.745 122.614 98.5113 125.162 96.2732 127.676C95.0346 129.066 93.5771 130.198 92.2182 131.448L91.8654 131.173L90.598 129.936L89.2869 126.648C88.3832 122.801 87.9102 118.886 87.8309 114.905L87.8555 114.236L88.0346 111.339C88.0934 110.35 88.1727 109.362 88.2096 108.373C88.3408 104.817 88.4584 101.258 88.5828 97.6983Z" fill="#409433"/>
<path fill-rule="evenodd" clip-rule="evenodd" d="M88.5828 97.6983C88.4598 101.258 88.3422 104.819 88.2096 108.378C88.1726 109.369 88.0947 110.356 88.0346 111.344L87.2361 111.689C85.4615 105.719 83.6855 99.8108 81.9492 93.889C79.0768 84.0905 76.2398 74.278 73.3715 64.4765C71.0568 56.5671 68.7217 48.6624 66.3742 40.764C66.2635 40.3952 65.949 40.1046 65.7303 39.778L70.8436 29.0327C71.0199 29.3812 71.251 29.7077 71.3617 30.0827C73.7269 38.0827 76.0881 46.0843 78.4287 54.0937C81.4748 64.5155 84.5004 74.9421 87.5437 85.3655C87.6654 85.7812 87.865 86.1655 88.0564 86.6327L88.7564 85.7015C88.6977 89.7015 88.6402 93.6983 88.5828 97.6983Z" fill="#4FAA41"/>
<path fill-rule="evenodd" clip-rule="evenodd" d="M65.7289 39.7781C65.949 40.1046 66.2635 40.3953 66.3729 40.764C68.7203 48.6625 71.0555 56.5656 73.3701 64.4765C76.2385 74.2781 79.0754 84.0906 81.9479 93.889C83.6842 99.8109 85.4602 105.717 87.2348 111.689L88.0332 111.344L87.8541 114.241L87.6914 114.908C87.4139 118.078 87.1801 121.255 86.841 124.419C86.6715 126.005 86.3092 127.561 86.0344 129.13C85.8279 128.787 85.5381 128.477 85.426 128.097C79.7152 108.645 74.0236 89.1859 68.3238 69.7312C66.5096 63.539 64.6857 57.3515 62.8496 51.1703C62.7566 50.8562 62.4941 50.6093 62.3109 50.3312L65.7289 39.7781Z" fill="#4AA73C"/>
<path fill-rule="evenodd" clip-rule="evenodd" d="M88.7551 85.7016L88.0551 86.6329C87.8637 86.1657 87.6641 85.7813 87.5424 85.3657C84.499 74.9422 81.4734 64.5157 78.4273 54.0938C76.0867 46.0844 73.7256 38.0829 71.3604 30.0829C71.2496 29.7079 71.0186 29.3813 70.8422 29.0329L77.1654 19.5266C77.365 19.8297 77.6494 20.1 77.752 20.4422C79.5074 26.3172 81.2465 32.1969 82.9773 38.0813C84.5934 43.5782 86.1848 49.0813 87.8199 54.5688C87.9293 54.936 88.3107 55.1954 88.565 55.5079L88.5787 56.7547L88.7551 85.7016Z" fill="#57AE47"/>
<path fill-rule="evenodd" clip-rule="evenodd" d="M88.565 55.5077C88.3094 55.1968 87.9293 54.9374 87.8199 54.5686C86.1861 49.0812 84.5934 43.578 82.9773 38.0812C81.2465 32.1968 79.5074 26.3171 77.752 20.4421C77.6494 20.0999 77.365 19.8296 77.1654 19.5265C79.2217 17.2249 81.2137 14.8405 83.3533 12.6452C85.2551 10.6952 86.7836 8.60459 86.8547 5.52178L87.0051 4.90771L87.5465 6.46709C87.5328 7.25459 87.4713 8.04521 87.5164 8.82959C87.5943 10.1937 87.7871 11.5515 87.8404 12.9155C87.9402 15.4546 87.9881 17.9983 88.0332 20.5405C88.1057 24.6312 88.1713 28.7233 88.215 32.8155L88.4024 52.4312C88.416 53.4577 88.5104 54.4827 88.565 55.5077Z" fill="#60B24F"/>
<path fill-rule="evenodd" clip-rule="evenodd" d="M86.0357 129.128C86.3105 127.559 86.6729 126.003 86.8424 124.417C87.1814 121.255 87.4152 118.077 87.6928 114.906L87.7625 114.894L87.8309 114.908C87.9102 118.889 88.3832 122.805 89.2869 126.652C89.1023 126.93 88.844 127.175 88.7455 127.488C87.9867 129.934 87.2703 132.402 86.5074 134.847C86.4035 135.181 86.1109 135.442 85.9072 135.734L85.1266 132.672L86.0357 129.128Z" fill="#A9AA88"/>
<path fill-rule="evenodd" clip-rule="evenodd" d="M85.9072 135.736C86.1109 135.442 86.4035 135.183 86.5074 134.848C87.2703 132.403 87.9867 129.936 88.7455 127.489C88.8426 127.177 89.1023 126.931 89.2869 126.653L90.598 129.941C90.3396 130.359 89.9814 130.739 89.8379 131.206L87.3277 139.631C87.2238 139.97 86.8725 140.208 86.6346 140.494L85.9072 135.736Z" fill="#B6B598"/>
<path fill-rule="evenodd" clip-rule="evenodd" d="M86.6346 140.492C86.8711 140.206 87.2238 139.969 87.3277 139.63L89.8379 131.205C89.9801 130.737 90.3397 130.358 90.598 129.939L91.8668 131.175C91.2543 131.867 90.9139 132.667 91.119 133.678L90.7334 135.12C90.5584 135.367 90.3041 135.583 90.218 135.866C89.3416 138.734 88.5062 141.619 87.623 144.486C87.5109 144.848 87.2006 145.134 86.9832 145.456L86.6346 140.492Z" fill="#C2C1A7"/>
<path fill-rule="evenodd" clip-rule="evenodd" d="M86.9818 145.455C87.2006 145.133 87.5109 144.847 87.6217 144.484C88.5049 141.617 89.3416 138.733 90.2166 135.864C90.3027 135.581 90.557 135.367 90.732 135.119L90.2002 141.737C90.058 141.925 89.8529 142.089 89.7846 142.306L88.0154 148.1C87.891 148.495 87.6531 148.848 87.4672 149.219C87.3018 148.972 87.0064 148.733 86.9928 148.476C86.9408 147.473 86.9777 146.462 86.9818 145.455Z" fill="#CECDB7"/>
<path fill-rule="evenodd" clip-rule="evenodd" d="M87.4686 149.22C87.6545 148.85 87.8924 148.497 88.0168 148.102L89.7859 142.308C89.8543 142.089 90.0607 141.927 90.2016 141.739L90.2152 146.083L88.9424 149.812L87.4686 149.22Z" fill="#DBDAC7"/>
<path fill-rule="evenodd" clip-rule="evenodd" d="M88.9424 149.812L90.2152 146.083L90.4777 150.495L88.9424 149.812Z" fill="#EBE9DC"/>
<path fill-rule="evenodd" clip-rule="evenodd" d="M91.1176 133.678C90.9139 132.669 91.2529 131.869 91.8654 131.175L92.2182 131.45L91.1176 133.678Z" fill="#CECDB7"/>
<path fill-rule="evenodd" clip-rule="evenodd" d="M87.8309 114.909L87.7625 114.895L87.6928 114.908L87.8555 114.241L87.8309 114.909Z" fill="#4FAA41"/>
</svg>
