<svg width="200" height="200" viewBox="0 0 200 200" fill="none" xmlns="http://www.w3.org/2000/svg">
<path d="M3.12656 141.341H9.54531V115.992L19.4828 138.091C20.6547 140.766 22.2594 141.711 25.4078 141.711C28.5562 141.711 30.1 140.766 31.2719 138.091L41.2094 115.992V141.341H47.6281V116.034C47.6281 113.566 46.6406 112.37 44.6031 111.755C39.7266 110.233 36.4547 111.55 34.9734 114.842L25.2219 136.652L15.7797 114.841C14.3594 111.55 11.0266 110.233 6.15 111.753C4.1125 112.37 3.125 113.564 3.125 116.033V141.341H3.12656ZM52.9672 120.706H59.3844V134.672C59.325 135.43 59.6281 137.211 63.1437 137.267C64.9375 137.295 76.9906 137.267 77.1031 137.267V120.638H83.5359C83.5656 120.638 83.5297 143.316 83.5297 143.409C83.5641 149.003 76.5906 150.217 73.375 150.311H53.1062V145.992C53.1406 145.992 73.3609 145.997 73.4109 145.991C77.5437 145.555 77.0547 143.502 77.0531 142.811V141.127H63.4109C57.0641 141.069 53.0203 138.298 52.9688 135.111C52.9656 134.819 53.1078 120.847 52.9672 120.706Z" fill="#00618A"/>
<path d="M88.4844 141.341H106.941C109.102 141.341 111.202 140.889 112.867 140.108C115.644 138.833 117.002 137.105 117.002 134.839V130.148C117.002 128.297 115.459 126.567 112.434 125.417C110.83 124.798 108.853 124.472 106.939 124.472H99.1609C96.5688 124.472 95.3344 123.691 95.0266 121.963C94.9656 121.756 94.9656 121.592 94.9656 121.386V118.464C94.9656 118.3 94.9656 118.134 95.0266 117.93C95.3344 116.613 96.0141 116.242 98.2984 116.036L98.9156 115.995H117.248V111.717H99.225C96.6328 111.717 95.275 111.881 94.0406 112.252C90.2141 113.445 88.5453 115.338 88.5453 118.63V122.373C88.5453 125.255 91.8187 127.723 97.3109 128.3C97.9297 128.339 98.5453 128.383 99.1625 128.383H105.83C106.077 128.383 106.323 128.383 106.509 128.422C108.547 128.586 109.409 128.958 110.028 129.697C110.398 130.067 110.52 130.439 110.52 130.848V134.594C110.52 135.045 110.212 135.622 109.595 136.116C109.041 136.609 108.114 136.939 106.88 137.022L106.2 137.063H88.4844V141.341ZM157.048 133.894C157.048 138.295 160.32 140.764 166.923 141.259C167.541 141.3 168.158 141.341 168.775 141.341H185.503V137.063H168.653C164.888 137.063 163.469 136.116 163.469 133.852V111.714H157.05V133.894H157.048ZM121.098 134.116V118.858C121.098 114.983 123.82 112.631 129.202 111.889C129.758 111.806 130.378 111.766 130.933 111.766H143.119C143.737 111.766 144.294 111.806 144.911 111.889C150.292 112.631 153.016 114.981 153.016 118.858V134.116C153.016 137.263 151.859 138.944 149.195 140.041L155.52 145.748H148.066L142.95 141.13L137.8 141.456H130.933C129.758 141.456 128.522 141.292 127.161 140.92C123.078 139.808 121.098 137.663 121.098 134.116ZM128.027 133.745C128.027 133.952 128.087 134.159 128.15 134.406C128.52 136.18 130.192 137.169 132.727 137.169H138.558L133.202 132.333H140.656L145.327 136.552C146.189 136.091 146.755 135.391 146.953 134.489C147.014 134.283 147.014 134.077 147.014 133.87V119.233C147.014 119.069 147.014 118.861 146.953 118.655C146.581 117.005 144.911 116.058 142.438 116.058H132.725C129.881 116.058 128.025 117.295 128.025 119.233V133.745H128.027Z" fill="#E48E00"/>
<path d="M191.15 104.613C187.205 104.505 184.191 104.872 181.612 105.958C180.88 106.267 179.712 106.275 179.594 107.192C179.995 107.616 180.058 108.245 180.378 108.764C180.994 109.759 182.033 111.094 182.959 111.792C183.97 112.556 185.014 113.375 186.102 114.037C188.031 115.216 190.187 115.887 192.048 117.066C193.144 117.762 194.231 118.637 195.302 119.423C195.831 119.809 196.184 120.414 196.873 120.656V120.545C196.512 120.086 196.419 119.455 196.087 118.973L194.628 117.514C193.202 115.62 191.392 113.959 189.466 112.578C187.931 111.477 184.497 109.987 183.856 108.202L183.744 108.091C184.831 107.967 186.106 107.573 187.109 107.305C188.797 106.852 190.305 106.969 192.047 106.519L194.403 105.844V105.397C193.523 104.494 192.894 103.297 191.934 102.48C189.423 100.341 186.68 98.2031 183.856 96.4187C182.291 95.4312 180.355 94.7891 178.694 93.9516C178.137 93.6688 177.156 93.5234 176.786 93.0531C175.912 91.9422 175.439 90.5344 174.766 89.2391C173.359 86.5281 171.975 83.5656 170.727 80.7109C169.877 78.7656 169.32 76.8469 168.259 75.1016C163.164 66.725 157.68 61.6687 149.184 56.7C147.377 55.6422 145.2 55.2266 142.902 54.6812L139.198 54.4562C138.447 54.1422 137.662 53.2203 136.955 52.7734C134.139 50.9953 126.92 47.1281 124.836 52.2141C123.52 55.4234 126.805 58.5547 127.978 60.1812C128.802 61.3219 129.858 62.6 130.447 63.8828C130.834 64.7266 130.9 65.5719 131.233 66.4641C132.047 68.6609 132.758 71.0531 133.812 73.0828C134.345 74.1109 134.934 75.1937 135.608 76.1125C136.02 76.675 136.73 76.925 136.841 77.7953C136.148 78.7641 136.108 80.2703 135.719 81.4969C133.966 87.0266 134.627 93.9 137.178 97.9922C137.961 99.25 139.805 101.944 142.339 100.909C144.556 100.006 144.062 97.2078 144.697 94.7375C144.841 94.1797 144.752 93.7672 145.033 93.3922V93.5047L147.053 97.5437C148.548 99.9516 151.2 102.466 153.448 104.164C154.614 105.044 155.533 106.567 157.039 107.081V106.967H156.928C156.634 106.512 156.18 106.325 155.805 105.958C154.927 105.097 153.95 104.028 153.225 103.041C151.18 100.266 149.373 97.2266 147.727 94.0641C146.941 92.5547 146.258 90.8891 145.595 89.3516C145.339 88.7594 145.342 87.8625 144.811 87.5578C144.083 88.6828 143.016 89.5938 142.453 90.9234C141.556 93.0484 141.441 95.6406 141.108 98.3281L140.883 98.4391C139.319 98.0625 138.77 96.4531 138.189 95.0734C136.72 91.5844 136.447 85.9641 137.741 81.9469C138.075 80.9062 139.586 77.6328 138.973 76.6719C138.681 75.7141 137.717 75.1609 137.18 74.4266C136.512 73.5219 135.845 72.3312 135.384 71.2844C134.181 68.5641 133.62 65.5094 132.356 62.7578C131.75 61.4422 130.728 60.1125 129.887 58.9437C128.958 57.6469 127.916 56.6937 127.194 55.1281C126.937 54.5719 126.589 53.6797 126.969 53.1078C127.089 52.7219 127.262 52.5609 127.644 52.4344C128.294 51.9328 130.106 52.6016 130.784 52.8828C132.584 53.6312 134.086 54.3422 135.611 55.3516C136.342 55.8375 137.081 56.775 137.967 57.0344H138.977C140.556 57.3969 142.327 57.1453 143.802 57.5937C146.411 58.3875 148.748 59.6203 150.87 60.9609C157.337 65.0453 162.623 70.8578 166.242 77.7922C166.823 78.9094 167.077 79.9734 167.587 81.1578C168.622 83.5453 169.925 86.0031 170.953 88.3391C171.98 90.6687 172.981 93.0203 174.433 94.9594C175.195 95.9781 178.142 96.525 179.481 97.0906C180.42 97.4875 181.958 97.9016 182.847 98.4359C184.545 99.4609 186.192 100.681 187.784 101.803C188.58 102.369 191.028 103.598 191.15 104.613ZM140.995 61.8641C140.173 61.8484 139.591 61.9547 138.975 62.0891V62.2H139.087C139.48 63.0078 140.172 63.5266 140.658 64.2203L141.781 66.5766L141.892 66.4656C142.587 65.9766 142.905 65.1937 142.902 63.9969C142.622 63.7031 142.581 63.3359 142.341 62.9875C142.022 62.5187 141.4 62.2562 140.995 61.8641Z" fill="#00618A"/>
</svg>
