<svg width="230" height="175" viewBox="0 0 230 175" fill="none" xmlns="http://www.w3.org/2000/svg">
<g clip-path="url(#clip0_15_174)">
<path d="M113.702 174.495C112.924 174.495 112.197 174.238 111.522 173.787L104.618 168.698C103.579 167.989 104.098 167.732 104.41 167.603C105.812 167.024 106.071 166.894 107.525 165.864C107.681 165.735 107.888 165.8 108.044 165.928L113.339 169.858C113.547 169.986 113.806 169.986 113.962 169.858L134.675 154.978C134.882 154.849 134.986 154.591 134.986 154.27V124.575C134.986 124.253 134.882 123.996 134.675 123.867L113.962 109.052C113.754 108.922 113.494 108.922 113.339 109.052L92.626 123.867C92.4185 123.995 92.3143 124.317 92.3143 124.575V154.269C92.3143 154.527 92.4185 154.849 92.626 154.978L98.2845 159.036C101.347 160.968 103.268 158.714 103.268 156.459V127.151C103.268 126.765 103.528 126.378 103.891 126.378H106.538C106.85 126.378 107.161 126.701 107.161 127.151V156.459C107.161 161.548 104.929 164.511 101.036 164.511C99.8418 164.511 98.9075 164.511 96.2597 162.9L90.8092 159.036C89.4595 158.07 88.629 156.266 88.629 154.334V124.64C88.629 122.707 89.4595 120.903 90.8092 119.937L111.522 105.058C112.82 104.156 114.585 104.156 115.883 105.058L136.595 119.937C137.945 120.903 138.776 122.707 138.776 124.64V154.334C138.776 156.266 137.945 158.07 136.595 159.036L115.883 173.915C115.208 174.302 114.429 174.495 113.702 174.495H113.702ZM120.087 154.076C111.003 154.076 109.134 148.923 109.134 144.543C109.134 144.156 109.394 143.77 109.757 143.77H112.456C112.768 143.77 113.027 144.028 113.027 144.415C113.443 147.828 114.637 149.503 120.139 149.503C124.5 149.503 126.369 148.279 126.369 145.38C126.369 143.706 125.849 142.482 119.049 141.645C113.391 140.936 109.861 139.39 109.861 133.786C109.861 128.569 113.391 125.477 119.309 125.477C125.953 125.477 129.224 128.311 129.639 134.494C129.639 134.688 129.587 134.881 129.484 135.074C129.379 135.203 129.224 135.332 129.068 135.332H126.369C126.109 135.332 125.849 135.074 125.798 134.752C125.175 131.21 123.565 130.05 119.309 130.05C114.533 130.05 113.962 132.112 113.962 133.657C113.962 135.525 114.637 136.105 121.074 137.135C127.459 138.166 130.47 139.648 130.47 145.187C130.418 150.856 126.68 154.076 120.087 154.076Z" fill="#539E43"/>
<path d="M49.4353 58.3586C49.4353 57.1994 48.9161 56.1037 48.0856 55.5241L26.075 39.8075C25.7112 39.5495 25.2962 39.4207 24.8811 39.3561H24.6732C24.2582 39.3561 23.8427 39.5495 23.4793 39.8075L1.46871 55.5241C0.637767 56.1037 0.118988 57.1988 0.118988 58.3586L0.171091 100.613C0.171091 101.193 0.430705 101.773 0.845728 102.031C1.2612 102.353 1.77998 102.353 2.1438 102.031L15.2256 92.755C16.0561 92.1754 16.5753 91.0803 16.5753 89.921V70.146C16.5753 68.9868 17.0941 67.8916 17.925 67.312L23.4793 63.3182C23.8948 62.9961 24.3619 62.8668 24.829 62.8668C25.2962 62.8668 25.7633 62.9961 26.1271 63.3182L31.6814 67.312C32.5124 67.8916 33.0311 68.9862 33.0311 70.146V89.921C33.0311 91.0803 33.5504 92.1754 34.3809 92.755L47.4626 102.031C47.8781 102.353 48.3969 102.353 48.8123 102.031C49.2278 101.773 49.4874 101.193 49.4874 100.613L49.4353 58.3586ZM155.232 0.193409C154.817 -0.0646324 154.297 -0.0646324 153.934 0.193409C153.519 0.515543 153.259 1.03051 153.259 1.61013V43.4792C153.259 43.8654 153.104 44.2516 152.792 44.5096C152.481 44.7025 152.169 44.7025 151.858 44.5096L146.355 40.5805C145.951 40.2955 145.495 40.1456 145.031 40.1456C144.567 40.1456 144.111 40.2955 143.707 40.5805L121.697 56.3617C120.866 56.9413 120.347 58.0365 120.347 59.1957V90.6935C120.347 91.8527 120.866 92.9484 121.697 93.528L143.707 109.309C144.111 109.594 144.567 109.744 145.031 109.744C145.495 109.744 145.951 109.594 146.355 109.309L168.366 93.528C169.196 92.9484 169.715 91.8533 169.715 90.6935V12.1742C169.715 10.9503 169.196 9.85575 168.366 9.27557L155.232 0.193409H155.232ZM153.207 80.3233C153.207 80.6455 153.104 80.9029 152.896 81.0317L145.369 86.4422C145.263 86.5058 145.148 86.5389 145.031 86.5389C144.914 86.5389 144.799 86.5058 144.693 86.4422L137.166 81.0317C136.959 80.9029 136.855 80.5808 136.855 80.3233V69.5018C136.855 69.1796 136.959 68.9221 137.166 68.7934L144.693 63.3823C144.799 63.3187 144.914 63.2856 145.031 63.2856C145.148 63.2856 145.263 63.3187 145.369 63.3823L152.896 68.7934C153.104 68.9216 153.207 69.2443 153.207 69.5018V80.3233ZM228.479 69.2443C229.31 68.6647 229.777 67.5695 229.777 66.4097V58.7448C229.777 57.5856 229.258 56.4905 228.479 55.9108L206.624 40.1943C206.221 39.9094 205.765 39.7596 205.301 39.7596C204.837 39.7596 204.38 39.9094 203.977 40.1943L181.966 55.9749C181.136 56.5545 180.617 57.6497 180.617 58.8095V90.3073C180.617 91.4665 181.136 92.5616 181.966 93.1412L203.821 108.6C204.652 109.18 205.638 109.18 206.417 108.6L219.654 99.4546C220.07 99.1966 220.329 98.617 220.329 98.0373C220.329 97.4577 220.07 96.8781 219.654 96.6201L197.54 80.8389C197.125 80.5173 196.865 80.0018 196.865 79.4221V69.567C196.865 68.9874 197.125 68.4077 197.54 68.1497L204.444 63.2542C204.646 63.0963 204.88 63.0126 205.119 63.0126C205.358 63.0126 205.592 63.0963 205.794 63.2542L212.698 68.1497C213.113 68.4718 213.373 68.9868 213.373 69.567V77.2965C213.373 77.8761 213.633 78.4557 214.048 78.7132C214.463 79.0353 214.982 79.0353 215.397 78.7132L228.479 69.2443Z" fill="#333333"/>
<path d="M204.963 67.763C205.04 67.7 205.131 67.6665 205.223 67.6665C205.315 67.6665 205.405 67.7 205.482 67.763L209.687 70.7903C209.843 70.9185 209.947 71.1119 209.947 71.37V77.4247C209.947 77.6822 209.843 77.8756 209.687 78.0044L205.482 81.0318C205.405 81.0947 205.315 81.1282 205.223 81.1282C205.131 81.1282 205.04 81.0947 204.963 81.0318L200.758 78.0044C200.603 77.8756 200.499 77.6822 200.499 77.4247V71.37C200.499 71.1119 200.603 70.9185 200.758 70.7903L204.963 67.763Z" fill="#539E43"/>
<path d="M86.2408 40.323C85.8374 40.0381 85.3812 39.8883 84.9171 39.8883C84.4529 39.8883 83.9968 40.0381 83.5934 40.323L61.7387 55.9744C60.9077 56.554 60.4406 57.6491 60.4406 58.8084V90.178C60.4406 91.3372 60.9598 92.4324 61.7387 93.012L83.5934 108.664C83.9968 108.949 84.4529 109.099 84.9171 109.099C85.3812 109.099 85.8374 108.949 86.2408 108.664L108.096 93.012C108.926 92.4324 109.394 91.3372 109.394 90.178V58.8089C109.394 57.6497 108.874 56.5546 108.096 55.9749L86.2408 40.323Z" fill="url(#paint0_linear_15_174)"/>
</g>
<defs>
<linearGradient id="paint0_linear_15_174" x1="93.821" y1="51.9912" x2="61.9042" y2="92.4086" gradientUnits="userSpaceOnUse">
<stop stop-color="#41873F"/>
<stop offset="0.3288" stop-color="#418B3D"/>
<stop offset="0.6352" stop-color="#419637"/>
<stop offset="0.9319" stop-color="#3FA92D"/>
<stop offset="1" stop-color="#3FAE2A"/>
</linearGradient>
<clipPath id="clip0_15_174">
<rect width="230" height="175" fill="white"/>
</clipPath>
</defs>
</svg>
