<svg width="175" height="175" viewBox="0 0 175 175" fill="none" xmlns="http://www.w3.org/2000/svg">
<path d="M87.5 105.344C96.3004 105.344 103.435 97.3552 103.435 87.5C103.435 77.6448 96.3004 69.6556 87.5 69.6556C78.6996 69.6556 71.5655 77.6448 71.5655 87.5C71.5655 97.3552 78.6996 105.344 87.5 105.344Z" fill="#61DAFB"/>
<path d="M148.023 58.0724C144.948 56.8202 141.733 55.568 138.379 54.4723C139.217 50.7156 139.916 46.9589 140.475 43.3587C143.411 22.6968 140.196 8.13953 131.25 2.50447C128.594 0.782647 125.659 0 122.304 0C112.52 0 100.08 8.13953 87.5 21.7576C74.9201 8.13953 62.48 0 52.6957 0C49.341 0 46.4058 0.782647 43.75 2.50447C34.8043 8.29606 31.5895 22.8533 34.5248 43.3587C35.0839 46.9589 35.7827 50.7156 36.6214 54.4723C33.2668 55.568 30.0519 56.6637 26.9768 58.0724C9.50479 65.5859 0 75.9168 0 87.5C0 99.0832 9.64457 109.414 26.9768 116.928C30.0519 118.18 33.2668 119.432 36.6214 120.528C35.7827 124.284 35.0839 128.041 34.5248 131.641C31.5895 152.303 34.8043 166.86 43.75 172.496C46.4058 174.217 49.341 175 52.6957 175C62.6198 175 75.0599 166.86 87.5 153.242C100.08 166.86 112.52 175 122.304 175C125.659 175 128.594 174.217 131.25 172.496C140.196 166.704 143.411 152.147 140.475 131.641C139.916 128.041 139.217 124.284 138.379 120.528C141.733 119.432 144.948 118.336 148.023 116.928C165.495 109.414 175 99.0832 175 87.5C175 75.9168 165.495 65.5859 148.023 58.0724ZM127.336 10.3309C133.067 14.0877 135.024 25.6708 132.648 42.1064C132.228 45.3936 131.53 48.8372 130.691 52.4374C123.423 50.559 115.735 49.3068 107.628 48.5241C102.875 41.0107 97.9832 34.28 93.0911 28.1753C103.435 16.7487 113.918 8.92218 122.444 8.92218C124.261 8.92218 125.938 9.39177 127.336 10.3309ZM111.681 103.153C109.165 108.162 106.23 113.171 103.155 118.18C97.9832 118.649 92.8115 118.806 87.5 118.806C82.0487 118.806 76.877 118.649 71.845 118.18C68.77 113.171 65.9744 108.162 63.4585 103.153C60.8027 97.9875 58.2867 92.6655 56.0503 87.5C58.2867 82.3345 60.8027 77.0125 63.4585 71.847C65.9744 66.8381 68.9097 61.8292 71.9848 56.8202C77.1565 56.3506 82.3283 56.1941 87.6398 56.1941C93.091 56.1941 98.2628 56.3506 103.295 56.8202C106.37 61.8292 109.165 66.8381 111.681 71.847C114.337 77.0125 116.853 82.3345 119.089 87.5C116.713 92.6655 114.337 97.8309 111.681 103.153ZM123.283 97.9875C125.379 103.466 127.057 108.788 128.594 114.11C123.842 115.362 118.81 116.301 113.498 117.084C115.176 114.11 116.993 110.979 118.53 107.692C120.208 104.405 121.745 101.118 123.283 97.9875ZM87.5 140.407C84.1454 136.337 80.9305 131.954 77.8554 127.415C81.0703 127.572 84.2851 127.728 87.5 127.728C90.7149 127.728 93.9297 127.572 97.1446 127.415C94.0695 131.954 90.8546 136.337 87.5 140.407ZM61.5016 116.928C56.1901 116.145 51.1581 115.206 46.4057 113.953C47.9433 108.788 49.6206 103.309 51.7173 97.8309C53.2548 100.962 54.7923 104.249 56.4696 107.379C58.147 110.823 59.8243 113.797 61.5016 116.928ZM51.7173 77.0125C49.6206 71.534 47.9433 66.212 46.4057 60.89C51.1581 59.6377 56.1901 58.6986 61.5016 57.9159C59.8243 60.89 58.0072 64.0206 56.4696 67.3077C54.7923 70.5948 53.2548 73.8819 51.7173 77.0125ZM87.5 34.593C90.8546 38.6628 94.0695 43.0456 97.1446 47.585C93.9297 47.4284 90.7149 47.2719 87.5 47.2719C84.2851 47.2719 81.0703 47.4284 77.8554 47.585C80.9305 43.0456 84.1454 38.6628 87.5 34.593ZM118.53 67.4642L113.498 58.0724C118.81 58.8551 123.842 59.7943 128.594 61.0465C127.057 66.212 125.379 71.6905 123.283 77.1691C121.745 73.8819 120.208 70.5948 118.53 67.4642ZM42.3522 42.1064C39.976 25.6708 41.9329 14.0877 47.6637 10.3309C49.0615 9.39177 50.7388 8.92218 52.5559 8.92218C60.9425 8.92218 71.4257 16.5921 81.9089 28.1753C77.0168 34.1234 72.1246 41.0107 67.3722 48.5241C59.2652 49.3068 51.5775 50.7156 44.3091 52.4374C43.4704 48.8372 42.9113 45.3936 42.3522 42.1064ZM7.82748 87.5C7.82748 80.1431 15.7947 72.3166 29.7724 66.525C32.5679 65.2728 35.643 64.1771 38.7181 63.2379C40.9545 71.0644 43.75 79.3605 47.1046 87.6565C43.75 95.9526 40.8147 104.092 38.7181 111.919C19.4289 105.657 7.82748 96.2656 7.82748 87.5ZM47.6637 164.669C41.9329 160.912 39.976 149.329 42.3522 132.894C42.7716 129.606 43.4704 126.163 44.3091 122.563C51.5775 124.441 59.2652 125.693 67.3722 126.476C72.1246 133.989 77.0168 140.72 81.9089 146.825C71.5655 158.251 61.0823 166.078 52.5559 166.078C50.7388 166.078 49.0615 165.608 47.6637 164.669ZM132.648 132.894C135.024 149.329 133.067 160.912 127.336 164.669C125.938 165.608 124.261 166.078 122.444 166.078C114.058 166.078 103.574 158.408 93.0911 146.825C97.9832 140.877 102.875 133.989 107.628 126.476C115.735 125.693 123.423 124.284 130.691 122.563C131.53 126.163 132.089 129.606 132.648 132.894ZM145.228 108.475C142.432 109.727 139.357 110.823 136.282 111.762C134.046 103.936 131.25 95.6395 127.895 87.3435C131.25 79.0474 134.185 70.9079 136.282 63.0814C155.571 69.3426 167.173 78.7343 167.173 87.5C167.173 94.8569 159.066 102.683 145.228 108.475Z" fill="#61DAFB"/>
</svg>
