<svg width="175" height="175" viewBox="0 0 175 175" fill="none" xmlns="http://www.w3.org/2000/svg">
<g clip-path="url(#clip0_15_169)">
<path d="M121.257 121.732C127.714 121.031 132.614 115.19 132.391 108.181C132.169 101.172 126.601 95.5644 119.92 95.5644H119.475C112.571 95.7982 107.226 101.872 107.449 109.115C107.672 112.62 109.008 115.657 111.012 117.76C103.441 133.414 91.8606 144.862 74.4905 154.441C62.6876 160.983 50.4396 163.319 38.1917 161.684C28.1702 160.282 20.3759 155.61 15.4759 147.899C8.35009 136.451 7.68222 124.068 13.6951 111.685C17.9266 102.807 24.6066 96.265 28.8381 92.9941C27.9474 89.9569 26.6109 84.8171 25.9431 81.0792C-6.34786 105.611 -3.00714 138.787 6.7915 154.441C14.1401 166.123 29.0609 173.366 45.5403 173.366C49.9939 173.366 54.4475 172.898 58.9018 171.731C87.407 165.889 109.009 148.133 121.257 121.732ZM160.451 92.761C143.526 71.9671 118.584 60.5191 90.0792 60.5191H86.5163C84.512 56.3137 80.2806 53.5096 75.6041 53.5096H75.1584C68.2555 53.7434 62.9111 59.8177 63.1333 67.061C63.3561 74.0698 68.9233 79.6772 75.6041 79.6772H76.0491C80.9484 79.4434 85.1799 76.1725 86.9613 71.7333H90.9699C107.895 71.7333 123.929 76.8731 138.404 86.9198C149.539 94.6299 157.556 104.677 162.01 116.825C165.795 126.638 165.573 136.217 161.564 144.395C155.329 156.777 144.862 163.553 131.055 163.553C122.147 163.553 113.685 160.749 109.231 158.646C106.781 160.983 102.327 164.721 99.2093 167.058C108.786 171.73 118.584 174.3 127.937 174.3C149.316 174.3 165.128 161.917 171.14 149.535C177.598 135.983 177.153 112.62 160.451 92.761ZM47.3218 125.703C47.5446 132.712 53.1118 138.319 59.7926 138.319H60.2383C67.1419 138.086 72.4862 132.011 72.2634 124.768C72.0412 117.759 66.4733 112.152 59.7926 112.152H59.3475C58.9018 112.152 58.2333 112.152 57.789 112.385C48.6582 96.4981 44.8725 79.2096 46.2089 60.5184C47.0989 46.5001 51.5532 34.3508 59.3475 24.3041C65.8055 15.6595 78.2763 11.4541 86.7392 11.221C110.344 10.7534 120.365 41.5933 121.034 53.9765C123.929 54.6771 128.828 56.313 132.169 57.4812C129.496 19.6325 107.226 0.00683594 85.8484 0.00683594C65.8055 0.00683594 47.3218 15.1933 39.9725 37.6224C29.7288 67.5279 36.4096 96.265 48.8804 118.928C47.7675 120.563 47.0989 123.133 47.3218 125.704V125.703Z" fill="#660EF1"/>
</g>
<defs>
<clipPath id="clip0_15_169">
<rect width="175" height="175" fill="white"/>
</clipPath>
</defs>
</svg>
