<svg width="50" height="50" viewBox="0 0 50 50" fill="none" xmlns="http://www.w3.org/2000/svg">
<path fill-rule="evenodd" clip-rule="evenodd" d="M49.9812 17.1031C49.976 17.0697 49.9687 17.0406 49.9646 17.0093C49.9543 16.9487 49.9415 16.8886 49.926 16.8291C49.9167 16.7937 49.9031 16.7593 49.8917 16.7249C49.8752 16.6723 49.8572 16.6202 49.8375 16.5687C49.8231 16.5331 49.8067 16.4984 49.7885 16.4645C49.7677 16.4153 49.7433 16.3676 49.7156 16.3218C49.6969 16.2875 49.675 16.2541 49.6552 16.2218C49.5766 16.0992 49.4855 15.9851 49.3833 15.8812C49.3542 15.8531 49.3281 15.8229 49.2979 15.7979C49.2584 15.7626 49.2181 15.7282 49.1771 15.6948C49.1437 15.6698 49.1125 15.6448 49.0792 15.6218L49.0437 15.5948L26.1917 0.36067C25.8387 0.125491 25.4241 0 25 0C24.5759 0 24.1613 0.125491 23.8083 0.36067L0.957292 15.5948L0.921875 15.6218C0.844746 15.6755 0.771635 15.7347 0.703125 15.7989C0.672917 15.8229 0.644792 15.8531 0.616667 15.8812C0.580208 15.9187 0.54375 15.9573 0.511458 15.9979C0.449207 16.0668 0.394067 16.1418 0.346875 16.2218C0.325 16.2541 0.305208 16.2875 0.284375 16.3218C0.257911 16.3679 0.23358 16.4152 0.211458 16.4635C0.195833 16.4968 0.178125 16.5322 0.164583 16.5687C0.141667 16.6208 0.125 16.6718 0.108333 16.7249C0.096875 16.7593 0.084375 16.7937 0.075 16.8291C0.059375 16.8874 0.0489583 16.9479 0.0375 17.0093C0.03125 17.0406 0.0239583 17.0697 0.0208333 17.1031C0.00833331 17.1937 0 17.2874 0 17.3822V32.6163C0 32.7101 0.00833331 32.8038 0.0208333 32.8976C0.0239583 32.9278 0.03125 32.959 0.0375 32.9903C0.0479167 33.0517 0.059375 33.1101 0.075 33.1705C0.084375 33.2059 0.096875 33.2403 0.108333 33.2746C0.125 33.3267 0.141667 33.3788 0.163542 33.4319C0.178125 33.4673 0.194792 33.5007 0.210417 33.5361C0.234375 33.584 0.257292 33.6309 0.284375 33.6798C0.305208 33.7121 0.325 33.7455 0.346875 33.7777C0.423875 33.9009 0.514746 34.0149 0.617708 34.1173C0.645833 34.1465 0.672917 34.1746 0.703125 34.2007C0.771635 34.2649 0.844746 34.3241 0.921875 34.3777L0.957292 34.4048L23.8083 49.6389C24.1612 49.8744 24.5758 50 25 50C25.4242 50 25.8388 49.8744 26.1917 49.6389L49.0437 34.4048L49.0792 34.3777C49.1125 34.3548 49.1437 34.3298 49.1771 34.3048C49.2181 34.271 49.2584 34.2363 49.2979 34.2007C49.3281 34.1746 49.3542 34.1465 49.3833 34.1173C49.4864 34.0149 49.5773 33.901 49.6542 33.7777C49.675 33.7455 49.6969 33.7121 49.7156 33.6798C49.7437 33.6309 49.7677 33.584 49.7885 33.5361C49.8062 33.5007 49.824 33.4673 49.8375 33.4319C49.8583 33.3798 49.875 33.3267 49.8917 33.2746C49.9031 33.2403 49.9167 33.2059 49.9271 33.1705C49.9417 33.1101 49.9531 33.0517 49.9646 32.9903C49.9687 32.959 49.976 32.9278 49.9812 32.8986C49.9937 32.8049 50 32.7111 50 32.6174V17.3833C50.0001 17.2895 49.9939 17.1959 49.9812 17.1031ZM27.1479 6.16369L43.9823 17.3854L36.4646 22.4155L27.149 16.1843V6.16369H27.1479ZM22.851 6.16369V16.1843L13.5375 22.4155L6.01667 17.3854L22.8521 6.16369H22.851ZM4.29687 21.404L9.67396 24.9998L4.29687 28.5956V21.404ZM22.8521 43.8359L6.01771 32.6142L13.5375 27.5852L22.8521 33.8153V43.8359ZM25 30.083L17.4021 24.9998L25 19.9166L32.6 24.9998L25 30.083ZM27.149 43.8359V33.8153L36.4635 27.5862L43.9823 32.6142L27.149 43.8359ZM45.7031 28.5956L40.3281 24.9998L45.7031 21.404V28.5956Z" fill="white"/>
</svg>
