<svg width="50" height="50" viewBox="0 0 50 50" fill="none" xmlns="http://www.w3.org/2000/svg">
<path d="M46.3028 0.000349572H3.69718C3.21826 -0.00626189 2.74271 0.0809672 2.2977 0.257055C1.85269 0.433144 1.44694 0.694641 1.10362 1.02662C0.760291 1.35859 0.48612 1.75454 0.29676 2.19184C0.1074 2.62915 0.00656035 3.09925 0 3.5753V46.4247C0.00656035 46.9007 0.1074 47.3708 0.29676 47.8082C0.48612 48.2455 0.760291 48.6414 1.10362 48.9734C1.44694 49.3054 1.85269 49.5669 2.2977 49.7429C2.74271 49.919 3.21826 50.0063 3.69718 49.9996H46.3028C46.7817 50.0063 47.2573 49.919 47.7023 49.7429C48.1473 49.5669 48.5531 49.3054 48.8964 48.9734C49.2397 48.6414 49.5139 48.2455 49.7032 47.8082C49.8926 47.3708 49.9934 46.9007 50 46.4247V3.5753C49.9934 3.09925 49.8926 2.62915 49.7032 2.19184C49.5139 1.75454 49.2397 1.35859 48.8964 1.02662C48.5531 0.694641 48.1473 0.433144 47.7023 0.257055C47.2573 0.0809672 46.7817 -0.00626189 46.3028 0.000349572ZM15.166 41.8498H7.62072V19.3501H15.166V41.8498ZM11.3934 16.2001C10.3528 16.2001 9.3548 15.7892 8.619 15.0579C7.88319 14.3265 7.46982 13.3345 7.46982 12.3002C7.46982 11.2658 7.88319 10.2739 8.619 9.5425C9.3548 8.81112 10.3528 8.40023 11.3934 8.40023C11.9459 8.33794 12.5055 8.39237 13.0354 8.55994C13.5653 8.72751 14.0537 9.00445 14.4685 9.37262C14.8832 9.7408 15.2151 10.1919 15.4423 10.6964C15.6696 11.2009 15.787 11.7474 15.787 12.3002C15.787 12.8529 15.6696 13.3994 15.4423 13.9039C15.2151 14.4085 14.8832 14.8596 14.4685 15.2277C14.0537 15.5959 13.5653 15.8728 13.0354 16.0404C12.5055 16.208 11.9459 16.2624 11.3934 16.2001ZM42.3793 41.8498H34.834V29.7749C34.834 26.75 33.7525 24.775 31.0111 24.775C30.1626 24.7812 29.3365 25.0457 28.644 25.5329C27.9514 26.0201 27.4258 26.7067 27.1378 27.5C26.941 28.0876 26.8557 28.7064 26.8863 29.3249V41.8248H19.341C19.341 41.8248 19.341 21.375 19.341 19.3251H26.8863V22.5C27.5718 21.3178 28.5687 20.3439 29.7697 19.6831C30.9708 19.0223 32.3304 18.6997 33.7022 18.7501C38.7324 18.7501 42.3793 21.975 42.3793 28.8999V41.8498Z" fill="white"/>
</svg>
